<svg width="14" height="16" viewBox="0 0 14 16" fill="none" xmlns="http://www.w3.org/2000/svg">
<path d="M1.75 15.5H12.25C13.0773 15.5 13.75 14.8273 13.75 14V5.75C13.75 5.55109 13.671 5.36032 13.5303 5.21967C13.3897 5.07902 13.1989 5 13 5H10.75V4.25C10.75 2.18225 9.06775 0.5 7 0.5C4.93225 0.5 3.25 2.18225 3.25 4.25V5H1C0.801088 5 0.610322 5.07902 0.46967 5.21967C0.329018 5.36032 0.25 5.55109 0.25 5.75V14C0.25 14.8273 0.92275 15.5 1.75 15.5ZM4.75 4.25C4.75 3.0095 5.7595 2 7 2C8.2405 2 9.25 3.0095 9.25 4.25V5H4.75V4.25ZM1.75 6.5H3.25V8H4.75V6.5H9.25V8H10.75V6.5H12.25L12.2515 14H1.75V6.5Z" fill="white"/>
</svg>
