<svg width="34" height="34" viewBox="0 0 34 34" fill="none" xmlns="http://www.w3.org/2000/svg">
<path fill-rule="evenodd" clip-rule="evenodd" d="M12.7502 2.83325L10.1577 5.66658H5.66683C4.1085 5.66658 2.8335 6.94158 2.8335 8.49992V25.4999C2.8335 27.0582 4.1085 28.3332 5.66683 28.3332H28.3335C29.8918 28.3332 31.1668 27.0582 31.1668 25.4999V8.49992C31.1668 6.94158 29.8918 5.66658 28.3335 5.66658H23.8427L21.2502 2.83325H12.7502ZM17.0002 21.2499C19.3474 21.2499 21.2502 19.3471 21.2502 16.9999C21.2502 14.6527 19.3474 12.7499 17.0002 12.7499C14.653 12.7499 12.7502 14.6527 12.7502 16.9999C12.7502 19.3471 14.653 21.2499 17.0002 21.2499ZM9.91683 16.9999C9.91683 20.9099 13.0902 24.0833 17.0002 24.0833C20.9102 24.0833 24.0835 20.9099 24.0835 16.9999C24.0835 13.0899 20.9102 9.91658 17.0002 9.91658C13.0902 9.91658 9.91683 13.0899 9.91683 16.9999Z" fill="#F2F2F2"/>
</svg>
