<svg width="38" height="38" viewBox="0 0 38 38" fill="none" xmlns="http://www.w3.org/2000/svg">
<path d="M10.237 0.751221H0.741699V10.2465H10.237V0.751221Z" fill="#FF7643"/>
<path d="M23.7478 0.751221H14.2524V10.2465H23.7478V0.751221Z" fill="#FFEBE2"/>
<path d="M37.258 0.751221H27.7627V10.2465H37.258V0.751221Z" fill="#FF7643"/>
<path d="M10.237 14.2524H0.741699V23.7478H10.237V14.2524Z" fill="#FFEBE2"/>
<path d="M23.7478 14.2524H14.2524V23.7478H23.7478V14.2524Z" fill="#FF7643"/>
<path d="M37.258 14.2524H27.7627V23.7478H37.258V14.2524Z" fill="#FFEBE2"/>
<path d="M10.237 27.7537H0.741699V37.249H10.237V27.7537Z" fill="#FF7643"/>
<path d="M23.7478 27.7537H14.2524V37.249H23.7478V27.7537Z" fill="#FFEBE2"/>
<path d="M37.258 27.7537H27.7627V37.249H37.258V27.7537Z" fill="#FF7643"/>
<path d="M23.7473 10.9885H14.2521C13.8424 10.9885 13.5103 10.6563 13.5103 10.2467V0.751338C13.5103 0.341725 13.8424 0.00952148 14.2521 0.00952148H23.7474C24.1571 0.00952148 24.4892 0.341725 24.4892 0.751338V10.2467C24.4891 10.6563 24.157 10.9885 23.7473 10.9885ZM14.9939 9.50477H23.0055V1.49315H14.9939V9.50477Z" fill="#333333"/>
<path d="M37.2581 10.9885H27.7628C27.3531 10.9885 27.021 10.6563 27.021 10.2467V0.751338C27.021 0.341725 27.3531 0.00952148 27.7628 0.00952148H37.2581C37.6678 0.00952148 38 0.341725 38 0.751338V10.2467C38 10.6563 37.6678 10.9885 37.2581 10.9885ZM28.5046 9.50477H36.5163V1.49315H28.5046V9.50477Z" fill="#333333"/>
<path d="M10.2371 24.4894H0.741816C0.332129 24.4894 0 24.1572 0 23.7476V14.2523C0 13.8427 0.332129 13.5105 0.741816 13.5105H10.2371C10.6468 13.5105 10.979 13.8427 10.979 14.2523V23.7476C10.979 24.1572 10.6468 24.4894 10.2371 24.4894ZM1.48363 23.0057H9.49525V14.9941H1.48363V23.0057Z" fill="#333333"/>
<path d="M23.7473 24.4894H14.2521C13.8424 24.4894 13.5103 24.1572 13.5103 23.7476V14.2523C13.5103 13.8427 13.8424 13.5105 14.2521 13.5105H23.7474C24.1571 13.5105 24.4892 13.8427 24.4892 14.2523V23.7476C24.4891 24.1572 24.157 24.4894 23.7473 24.4894ZM14.9939 23.0057H23.0055V14.9941H14.9939V23.0057Z" fill="#333333"/>
<path d="M37.2581 24.4894H27.7628C27.3531 24.4894 27.021 24.1572 27.021 23.7476V14.2523C27.021 13.8427 27.3531 13.5105 27.7628 13.5105H37.2581C37.6678 13.5105 38 13.8427 38 14.2523V23.7476C38 24.1572 37.6678 24.4894 37.2581 24.4894ZM28.5046 23.0057H36.5163V14.9941H28.5046V23.0057Z" fill="#333333"/>
<path d="M10.2371 37.9904H0.741816C0.332129 37.9904 0 37.6582 0 37.2486V27.7533C0 27.3437 0.332129 27.0115 0.741816 27.0115H10.2371C10.6468 27.0115 10.979 27.3437 10.979 27.7533V37.2486C10.979 37.6582 10.6468 37.9904 10.2371 37.9904ZM1.48363 36.5068H9.49525V28.4952H1.48363V36.5068Z" fill="#333333"/>
<path d="M23.7473 37.9904H14.2521C13.8424 37.9904 13.5103 37.6582 13.5103 37.2486V27.7533C13.5103 27.3437 13.8424 27.0115 14.2521 27.0115H23.7474C24.1571 27.0115 24.4892 27.3437 24.4892 27.7533V37.2486C24.4891 37.6582 24.157 37.9904 23.7473 37.9904ZM14.9939 36.5068H23.0055V28.4952H14.9939V36.5068Z" fill="#333333"/>
<path d="M32.7638 28.4954C32.5679 28.4954 32.3773 28.416 32.2394 28.2779C32.1006 28.14 32.022 27.9486 32.022 27.7535C32.022 27.5584 32.1006 27.3671 32.2394 27.2291C32.3773 27.0911 32.568 27.0117 32.7638 27.0117C32.9589 27.0117 33.1502 27.091 33.2882 27.2291C33.4262 27.3672 33.5056 27.5585 33.5056 27.7535C33.5056 27.9487 33.4263 28.14 33.2882 28.2779C33.1502 28.4159 32.9589 28.4954 32.7638 28.4954Z" fill="#333333"/>
<path d="M37.2581 37.9904H27.7628C27.3531 37.9904 27.021 37.6582 27.021 37.2486V27.7533C27.021 27.3437 27.3531 27.0115 27.7628 27.0115H29.4996C29.9093 27.0115 30.2414 27.3437 30.2414 27.7533C30.2414 28.1629 29.9093 28.4951 29.4996 28.4951H28.5046V36.5067H36.5163V28.4952H36.1266C35.7169 28.4952 35.3848 28.163 35.3848 27.7534C35.3848 27.3437 35.7169 27.0115 36.1266 27.0115H37.2581C37.6678 27.0115 38 27.3437 38 27.7534V37.2487C38 37.6582 37.6678 37.9904 37.2581 37.9904Z" fill="#333333"/>
<path d="M5.23644 10.9883C5.04132 10.9883 4.84999 10.909 4.71201 10.7709C4.57404 10.633 4.49463 10.4416 4.49463 10.2465C4.49463 10.0513 4.57397 9.86 4.71201 9.72203C4.84999 9.58405 5.04065 9.50464 5.23644 9.50464C5.43156 9.50464 5.6229 9.5839 5.76087 9.72203C5.89884 9.86 5.97826 10.0514 5.97826 10.2465C5.97826 10.4416 5.89892 10.6329 5.76087 10.7709C5.6229 10.9089 5.43156 10.9883 5.23644 10.9883Z" fill="#333333"/>
<path d="M10.2371 10.9885H8.50027C8.09059 10.9885 7.75846 10.6563 7.75846 10.2467C7.75846 9.83705 8.09059 9.50485 8.50027 9.50485H9.49525V1.49315H1.48363V9.50477H1.87336C2.28304 9.50477 2.61517 9.83697 2.61517 10.2466C2.61517 10.6562 2.28304 10.9884 1.87336 10.9884H0.741816C0.332129 10.9884 0 10.6562 0 10.2466V0.751338C0 0.341725 0.332129 0.00952148 0.741816 0.00952148H10.2371C10.6468 0.00952148 10.979 0.341725 10.979 0.751338V10.2467C10.979 10.6563 10.6468 10.9885 10.2371 10.9885Z" fill="#333333"/>
</svg>
