<svg width="32" height="26" viewBox="0 0 32 26" fill="none" xmlns="http://www.w3.org/2000/svg">
<g clip-path="url(#clip0)">
<path d="M2.50954 19.0734C2.62454 19.5051 3.06454 19.7641 3.48954 19.6473L14.3095 16.702C14.7345 16.5852 14.9895 16.1383 14.8745 15.7066L12.3895 6.28672C12.2745 5.85508 11.8345 5.59609 11.4095 5.71289L7.54954 6.76914L8.78954 11.4766L5.69954 12.3145L4.45954 7.60703L0.594539 8.6582C0.169539 8.775 -0.0854609 9.22188 0.0295391 9.65352L2.50954 19.0734ZM19.1995 0C18.3145 0 17.5995 0.726172 17.5995 1.625V18.0578L0.294539 22.8516C0.0795391 22.9125 -0.0454609 23.1359 0.0145391 23.3492L0.644539 25.7004C0.704539 25.9188 0.924539 26.0457 1.13454 25.9848L20.8195 20.5309C20.9395 23.5676 23.3795 26 26.3995 26C29.4945 26 31.9995 23.4559 31.9995 20.3125V0H19.1995ZM26.3995 22.75C25.0745 22.75 23.9995 21.6582 23.9995 20.3125C23.9995 18.9668 25.0745 17.875 26.3995 17.875C27.7245 17.875 28.7995 18.9668 28.7995 20.3125C28.7995 21.6582 27.7245 22.75 26.3995 22.75Z" fill="#FF7643"/>
</g>
<defs>
<clipPath id="clip0">
<rect width="32" height="26" fill="white"/>
</clipPath>
</defs>
</svg>
