<svg width="161" height="139" viewBox="0 0 161 139" fill="none" xmlns="http://www.w3.org/2000/svg">
<path d="M36.375 5.72949H133.089C135.073 5.72949 136.682 7.33826 136.682 9.32273V80.9538C136.682 82.9382 135.073 84.547 133.089 84.547H36.375C34.3905 84.547 32.7817 82.9382 32.7817 80.9538V9.32273C32.7817 7.33826 34.3905 5.72949 36.375 5.72949Z" fill="#FFEBE2"/>
<path d="M129.31 9.32295V80.954C129.313 81.9078 128.936 82.8235 128.261 83.4981C127.587 84.1726 126.671 84.5502 125.717 84.547H36.3751C36.157 84.5467 35.9394 84.5233 35.7262 84.4774C35.5194 84.4481 35.317 84.3935 35.1233 84.3152C33.7208 83.7896 32.7887 82.4519 32.7819 80.954V9.32295C32.7732 8.44876 33.0962 7.6039 33.686 6.95843C34.0329 6.55421 34.4697 6.23691 34.9609 6.03126C35.1592 5.93428 35.3697 5.86392 35.5868 5.82263C35.8441 5.75607 36.1092 5.7251 36.3749 5.72999H125.717C126.671 5.727 127.586 6.10434 128.261 6.77887C128.936 7.4534 129.313 8.36916 129.31 9.32295Z" fill="#FFEBE2"/>
<path d="M129.31 9.32295V12.4756L95.7199 41.1744L88.186 47.619C86.1855 49.2878 83.2782 49.2878 81.278 47.619L73.744 41.1744L33.686 6.95843C34.0329 6.55421 34.4698 6.23691 34.9609 6.03126C35.1592 5.93428 35.3698 5.86392 35.5868 5.82263C35.8441 5.75607 36.1092 5.7251 36.3749 5.72999H125.717C126.671 5.727 127.586 6.10434 128.261 6.77887C128.936 7.4534 129.313 8.36916 129.31 9.32295Z" fill="#FFEBE2"/>
<path d="M129.31 77.1525V80.9544C129.313 81.9082 128.936 82.8239 128.261 83.4985C127.587 84.173 126.671 84.5506 125.717 84.5473H36.3752C36.1571 84.5471 35.9395 84.5237 35.7262 84.4778C35.5195 84.4484 35.3171 84.3938 35.1234 84.3156C34.7336 84.1719 34.3725 83.96 34.0571 83.6897L73.7441 41.1748L81.278 47.6194C83.2785 49.2882 86.1858 49.2882 88.186 47.6194L95.7199 41.1748L129.31 77.1525Z" fill="#FFEBE2"/>
<path d="M106.106 117.975L100.612 127.109C99.5446 128.912 97.9951 130.381 96.1377 131.351C95.4792 131.714 94.7786 131.994 94.0514 132.185C84.9179 134.689 64.7962 135.199 32.5508 102.953C0.305413 70.7081 0.815045 50.5863 3.31865 41.4529C3.5061 40.7354 3.7783 40.0427 4.1301 39.3896C5.10753 37.5242 6.58427 35.967 8.39542 34.8923L17.5289 29.3983C19.6187 28.1421 22.3272 28.7553 23.6719 30.7892L31.6 42.6813L38.2532 52.6727C39.5908 54.6509 39.1649 57.3273 37.2796 58.7926L34.034 61.3193L29.0733 65.1674C28.3287 65.7514 27.7856 66.5539 27.5202 67.4623C27.1478 68.6272 27.2735 69.894 27.8679 70.9627C30.2789 75.2744 32.5505 80.3743 43.8401 91.6639C55.1297 102.953 60.2296 105.225 64.5413 107.636C66.5117 108.68 68.9463 108.174 70.3366 106.431L74.1847 101.47L76.7114 98.2245C78.1767 96.3391 80.8531 95.9132 82.8313 97.2508L93.147 104.113L104.715 111.832C106.748 113.177 107.362 115.886 106.106 117.975Z" fill="#FFEBE2"/>
<path d="M101.283 122.796L96.137 131.35C95.4785 131.713 94.7779 131.994 94.0507 132.185C84.9172 134.689 64.7954 135.198 32.5501 102.953C0.304688 70.7077 0.814592 50.5857 3.3182 41.4522C3.50565 40.7348 3.77785 40.0421 4.12965 39.389L12.7067 34.2196C14.7966 32.9634 17.505 33.5766 18.8498 35.6105L26.7778 47.5026L33.431 57.4706C34.1963 58.5991 34.4174 60.0103 34.0339 61.3186C33.7505 62.2244 33.2012 63.0241 32.4574 63.6136L27.5198 67.4617L24.2512 69.9884C22.4778 71.3602 21.9665 73.8185 23.0458 75.7837C25.4568 80.0954 27.7284 85.1953 39.018 96.4849C50.3076 107.774 55.4074 110.046 59.7192 112.457C61.6844 113.536 64.1426 113.025 65.5145 111.252L68.0412 107.983L71.8893 103.045C72.4788 102.302 73.2785 101.752 74.1842 101.469C75.4925 101.085 76.9038 101.307 78.0323 102.072L88.3249 108.934L99.8924 116.653C101.926 117.998 102.539 120.707 101.283 122.796Z" fill="#FFEBE2"/>
<path d="M4.12953 39.3893C3.77801 40.0424 3.50553 40.7349 3.31809 41.4526C0.81475 50.586 0.304574 70.7078 32.5502 102.953C60.229 130.632 78.9596 134.172 89.4981 133.036C78.4196 131.93 61.8842 125.333 39.5047 102.953C7.25905 70.7078 7.76922 50.586 10.2728 41.4526C10.4603 40.7351 10.7325 40.0424 11.0843 39.3893C12.0617 37.5238 13.5384 35.9667 15.3496 34.892L23.1804 30.1815C21.7151 28.624 19.3625 28.298 17.5288 29.398L8.39539 34.892C6.5837 35.967 5.10696 37.5238 4.12953 39.3893Z" fill="white"/>
<path d="M39.7364 54.4108V9.32274C39.7402 8.91199 39.8146 8.50504 39.9567 8.11956C39.9706 8.08017 39.9776 8.04078 39.9915 8.00139C40.5291 6.62788 41.8548 5.7257 43.3296 5.7295H36.3751C34.9003 5.7257 33.5746 6.62788 33.037 8.00139C33.0232 8.04078 33.0161 8.08017 33.0022 8.11956C32.8564 8.50423 32.7778 8.91117 32.7705 9.32274V43.9791L38.5427 52.6374L39.7364 54.4108Z" fill="white"/>
<path d="M30.911 104.59C23.6156 97.4449 17.0591 89.5831 11.3412 81.1228C7.37612 75.3066 4.25421 68.9582 2.06871 62.2669C-0.294175 55.3665 -0.640812 47.9353 1.06955 40.8447L5.54133 42.071C4.06867 48.3121 4.40308 54.8433 6.50572 60.9013C8.55973 67.1742 11.4904 73.1249 15.2105 78.5773C20.7553 86.7738 27.1121 94.3903 34.1845 101.311L30.911 104.59Z" fill="white"/>
<path fill-rule="evenodd" clip-rule="evenodd" d="M133.089 3.45312H35.9584C32.6953 3.45693 30.0509 6.10126 30.0471 9.36442V36.1576L25.6055 29.493C23.5724 26.4262 19.4837 25.5061 16.333 27.4067L7.19465 32.9004C4.20314 34.6575 2.00814 37.5048 1.0701 40.8448C-0.63945 47.934 -0.29227 55.3636 2.07143 62.2621C4.2572 68.9533 7.37884 75.3018 11.344 81.118L11.3832 81.1799L11.3832 81.18C11.7944 81.8292 12.2048 82.4772 12.6629 83.0861C13.0198 83.5939 13.5637 83.9389 14.1749 84.0454C14.7862 84.1519 15.4148 84.0111 15.9222 83.6542C16.9483 82.9174 17.1958 81.495 16.4786 80.4551C16.0551 79.9026 15.6898 79.321 15.3239 78.7385L15.2197 78.5728C11.4966 73.1225 8.563 67.1732 6.50572 60.9014C4.40526 54.8453 4.07139 48.3165 5.54378 42.0779C6.16669 39.8907 7.6111 38.0293 9.57493 36.8829L18.7225 31.3935C19.7475 30.7798 21.0734 31.0787 21.736 32.0727L36.3333 53.9469C36.9804 54.9254 36.7677 56.237 35.8441 56.9604L27.6517 63.333C24.9614 65.3968 24.1934 69.1223 25.8481 72.0818L26.4971 73.2594L26.5012 73.267C28.8186 77.5172 31.7029 82.8071 42.2004 93.3021C52.7015 103.801 57.9891 106.686 62.2379 109.004L62.2409 109.005L63.4185 109.652C66.3788 111.307 70.1052 110.539 72.1695 107.849L78.5399 99.6587C79.2641 98.7361 80.5746 98.5234 81.5534 99.1694L103.434 113.755C104.428 114.418 104.727 115.744 104.114 116.769L98.6266 125.916C97.4808 127.881 95.6191 129.327 93.4317 129.95C82.4738 132.964 63.2958 130.414 34.1889 101.305C33.4462 100.521 32.695 99.7442 31.9439 98.9674C30.571 97.5477 29.1981 96.1279 27.8766 94.6656C27.0252 93.73 25.5811 93.6496 24.6311 94.4847C23.6713 95.345 23.5895 96.8199 24.448 97.781C25.8089 99.2931 27.2291 100.761 28.6492 102.229L28.6493 102.229C29.4062 103.011 30.1631 103.793 30.911 104.583C55.3141 128.979 73.5142 135.546 86.0575 135.546C88.9615 135.56 91.8544 135.182 94.658 134.424C97.9975 133.488 100.845 131.295 102.605 128.307L108.091 119.159C109.984 116.011 109.065 111.931 106.005 109.898L84.1241 95.3121C81.1226 93.3269 77.0993 93.9797 74.8793 96.812L68.5089 105.002C67.8431 105.878 66.6353 106.134 65.6714 105.602L64.459 104.935C60.4694 102.76 55.504 100.053 45.4757 90.0243C44.3907 88.9393 43.4079 87.9241 42.4853 86.9527H133.088C136.343 86.9551 138.987 84.3241 138.999 81.0691V9.36442C138.997 6.10126 136.352 3.45693 133.089 3.45312ZM134.364 81.0696C134.357 81.767 133.786 82.3266 133.089 82.3214H38.3045C35.2937 78.8784 32.6974 75.0942 30.5687 71.0459L29.901 69.8289C29.3685 68.8672 29.6234 67.6605 30.4992 66.996L38.6916 60.6235C41.525 58.404 42.1778 54.3802 40.1914 51.3787L34.6835 43.1121V9.36442C34.6797 9.02512 34.8129 8.69859 35.0527 8.45871C35.2926 8.21884 35.6191 8.08572 35.9584 8.08953H133.089C133.429 8.08572 133.755 8.21884 133.995 8.45871C134.235 8.69859 134.368 9.02512 134.364 9.36442V81.0696ZM19.8998 91.5148H19.9016L19.9164 91.5167L19.8998 91.5148ZM19.9016 91.5148H20.3426C20.5013 91.5037 20.6575 91.4695 20.8063 91.413C20.9495 91.3815 21.0872 91.3285 21.2144 91.2554C21.3478 91.1766 21.4763 91.09 21.5993 90.9957C22.0658 90.5939 22.3678 90.0343 22.4477 89.4239C22.4749 89.121 22.4434 88.8157 22.3551 88.5244C22.0929 87.6407 21.332 86.9963 20.4171 86.8831C20.1133 86.8586 19.8077 86.8899 19.5154 86.9757C18.6081 87.2142 17.9395 87.9841 17.8301 88.9159C17.7091 90.1991 18.6254 91.3471 19.9016 91.5148ZM125.104 14.1863C126.124 13.4139 127.576 13.6131 128.35 14.6312C128.722 15.1213 128.885 15.7391 128.801 16.3487C128.718 16.9583 128.395 17.5097 127.905 17.8814L89.1591 47.2615C86.4034 49.2974 82.6423 49.2974 79.8866 47.2615L41.1526 17.8814C40.1323 17.1077 39.9323 15.6529 40.7063 14.6326C41.48 13.6122 42.9347 13.4123 43.955 14.1863L82.6844 43.5689C83.7805 44.3654 85.2649 44.3654 86.361 43.5689L125.104 14.1863ZM64.7399 47.4561L40.9928 72.8864C40.1197 73.8228 40.171 75.29 41.1074 76.1631C42.0438 77.0362 43.5111 76.9849 44.3842 76.0485L68.1313 50.6068C68.9158 49.6603 68.8248 48.2659 67.9242 47.4289C67.0234 46.5919 65.626 46.6042 64.7399 47.4561ZM101.183 47.3415C102.119 46.4682 103.586 46.5198 104.459 47.4562L128.2 72.8864C129.073 73.8231 129.022 75.2901 128.085 76.1632C127.148 77.0366 125.681 76.985 124.808 76.0486L101.068 50.6183C100.195 49.6816 100.246 48.2146 101.183 47.3415Z" fill="#FF7643"/>
<path fill-rule="evenodd" clip-rule="evenodd" d="M154 31C154.552 31 155 31.3731 155 31.8333L155 35.1667C155 35.6269 154.552 36 154 36C153.448 36 153 35.6269 153 35.1667L153 31.8333C153 31.3731 153.448 31 154 31Z" fill="#FF7643"/>
<path fill-rule="evenodd" clip-rule="evenodd" d="M154 40C154.552 40 155 40.3731 155 40.8333L155 44.1667C155 44.6269 154.552 45 154 45C153.448 45 153 44.6269 153 44.1667L153 40.8333C153 40.3731 153.448 40 154 40Z" fill="#FF7643"/>
<path fill-rule="evenodd" clip-rule="evenodd" d="M161 38C161 38.5523 160.627 39 160.167 39L156.833 39C156.373 39 156 38.5523 156 38C156 37.4477 156.373 37 156.833 37L160.167 37C160.627 37 161 37.4477 161 38Z" fill="#FF7643"/>
<path fill-rule="evenodd" clip-rule="evenodd" d="M152 38C152 38.5523 151.627 39 151.167 39H147.833C147.373 39 147 38.5523 147 38C147 37.4477 147.373 37 147.833 37H151.167C151.627 37 152 37.4477 152 38Z" fill="#FF7643"/>
<path fill-rule="evenodd" clip-rule="evenodd" d="M11 3C11.5523 3 12 3.3731 12 3.83333L12 7.16667C12 7.6269 11.5523 8 11 8C10.4477 8 10 7.6269 10 7.16667L10 3.83333C10 3.3731 10.4477 3 11 3Z" fill="#FF7643"/>
<path fill-rule="evenodd" clip-rule="evenodd" d="M11 12C11.5523 12 12 12.3731 12 12.8333L12 16.1667C12 16.6269 11.5523 17 11 17C10.4477 17 10 16.6269 10 16.1667L10 12.8333C10 12.3731 10.4477 12 11 12Z" fill="#FF7643"/>
<path fill-rule="evenodd" clip-rule="evenodd" d="M18 10C18 10.5523 17.6269 11 17.1667 11L13.8333 11C13.3731 11 13 10.5523 13 10C13 9.44772 13.3731 9 13.8333 9L17.1667 9C17.6269 9 18 9.44772 18 10Z" fill="#FF7643"/>
<path fill-rule="evenodd" clip-rule="evenodd" d="M9 10C9 10.5523 8.6269 11 8.16667 11H4.83333C4.3731 11 4 10.5523 4 10C4 9.44772 4.3731 9 4.83333 9H8.16667C8.6269 9 9 9.44772 9 10Z" fill="#FF7643"/>
<path fill-rule="evenodd" clip-rule="evenodd" d="M30 112C30.5523 112 31 112.373 31 112.833L31 116.167C31 116.627 30.5523 117 30 117C29.4477 117 29 116.627 29 116.167L29 112.833C29 112.373 29.4477 112 30 112Z" fill="#FF7643"/>
<path fill-rule="evenodd" clip-rule="evenodd" d="M30 121C30.5523 121 31 121.373 31 121.833L31 125.167C31 125.627 30.5523 126 30 126C29.4477 126 29 125.627 29 125.167L29 121.833C29 121.373 29.4477 121 30 121Z" fill="#FF7643"/>
<path fill-rule="evenodd" clip-rule="evenodd" d="M37 119C37 119.552 36.6269 120 36.1667 120L32.8333 120C32.3731 120 32 119.552 32 119C32 118.448 32.3731 118 32.8333 118L36.1667 118C36.6269 118 37 118.448 37 119Z" fill="#FF7643"/>
<path fill-rule="evenodd" clip-rule="evenodd" d="M28 119C28 119.552 27.6269 120 27.1667 120H23.8333C23.3731 120 23 119.552 23 119C23 118.448 23.3731 118 23.8333 118H27.1667C27.6269 118 28 118.448 28 119Z" fill="#FF7643"/>
<circle cx="135.5" cy="107.5" r="4.5" fill="#FFEBE2"/>
<circle cx="5.5" cy="89.5" r="4.5" fill="#FFEBE2"/>
<circle cx="141" cy="99" r="2" fill="#FFEBE2"/>
</svg>
