<svg width="38" height="38" viewBox="0 0 38 38" fill="none" xmlns="http://www.w3.org/2000/svg">
<g clip-path="url(#clip0)">
<path d="M18.9038 0.761633L17.5244 2.80413C17.1306 3.38719 17.362 4.18459 18.0067 4.46633C18.3853 4.63184 18.8243 4.57662 19.1502 4.32249L22.2152 1.93243C22.9304 1.37475 23.8947 1.25682 24.7232 1.62569L26.3258 2.33922L24.2349 3.64413C23.638 4.01664 23.525 4.8392 23.9994 5.35881C24.278 5.66399 24.7014 5.7921 25.1025 5.69249L28.8747 4.75571C29.7549 4.53713 30.6838 4.82161 31.2906 5.49552L32.4645 6.79924L30.0236 7.14087C29.3269 7.23839 28.8891 7.94384 29.1111 8.61151C29.2415 9.00368 29.5762 9.29291 29.9832 9.36505L33.8103 10.0436C34.7033 10.2019 35.4362 10.8396 35.7164 11.702L36.2585 13.3706L36.2545 13.3518L33.8857 12.6711C33.2095 12.4768 32.5226 12.9432 32.4538 13.6435C32.4135 14.0548 32.6016 14.4551 32.944 14.6865L36.1643 16.8631C36.9156 17.3709 37.3258 18.2515 37.231 19.1534L37.0476 20.8982L35.1604 19.3129C34.6217 18.8603 33.8045 19.0071 33.457 19.6188C33.2528 19.9781 33.2619 20.4204 33.4805 20.771L35.5371 24.0692C36.0169 24.8387 36.0335 25.81 35.58 26.5954L34.7028 28.1147L33.6236 25.8989C33.3155 25.2663 32.5093 25.068 31.9429 25.4855C31.6103 25.7307 31.4386 26.1384 31.4958 26.5477L32.0331 30.3972C32.1585 31.2953 31.7785 32.1894 31.0448 32.7225L29.6255 33.7537L29.5409 31.2904C29.5167 30.5873 28.8609 30.0781 28.1737 30.2292C27.7701 30.3179 27.4475 30.6205 27.3332 31.0177L26.2584 34.7529C26.0076 35.6243 25.2967 36.2866 24.4097 36.4751L22.6937 36.8399L22.6971 36.8391L23.6216 34.5545C23.8855 33.9022 23.4934 33.1704 22.8042 33.0289C22.3994 32.9458 21.9816 33.091 21.7157 33.4074L19.2145 36.3825C18.6309 37.0766 17.7122 37.3925 16.8252 37.2039L15.1092 36.8391L16.8831 35.1277C17.3895 34.6392 17.329 33.8112 16.757 33.4015C16.421 33.1609 15.9802 33.1236 15.6086 33.3044L12.1136 35.005C11.2981 35.4018 10.3303 35.3166 9.59666 34.7836L8.17738 33.7524L10.4939 32.9108C11.1552 32.6705 11.4367 31.8894 11.0807 31.2825C10.8717 30.9261 10.4841 30.7128 10.0711 30.7268L6.18654 30.8588C5.28018 30.8896 4.43075 30.4182 3.97728 29.6329L3.10009 28.1136L5.55865 28.2869C6.26046 28.3364 6.83536 27.7373 6.75698 27.0381C6.71097 26.6273 6.44371 26.2749 6.06067 26.1197L2.45824 24.6602C1.61787 24.3199 1.03354 23.5437 0.938765 22.6419L0.755371 20.8971L2.93087 22.0555C3.55193 22.3861 4.32068 22.0727 4.53354 21.402C4.65853 21.0082 4.55774 20.5774 4.27096 20.2799L1.57356 17.4815C0.944183 16.8285 0.726129 15.8818 1.00638 15.0193L1.54847 13.3508L3.06476 15.2939C3.4976 15.8486 4.32744 15.8749 4.79464 15.3488C5.06903 15.0398 5.15216 14.6053 5.01121 14.2168L3.6853 10.5632C3.37596 9.71069 3.56173 8.75713 4.16854 8.08322L5.34238 6.77972L5.93731 9.17149C6.10713 9.8543 6.85451 10.2159 7.49531 9.92533C7.87167 9.75463 8.12431 9.39155 8.15356 8.97934L8.42831 5.10231C8.49244 4.19773 9.05004 3.40218 9.87847 3.03332L11.4811 2.31978L11.0518 4.74673C10.9293 5.43956 11.4649 6.0739 12.1685 6.06908C12.5817 6.06626 12.9602 5.83729 13.1546 5.47258L14.9824 2.0425C15.4089 1.2422 16.2418 0.742188 17.1487 0.742188H18.9031" fill="#FFEBE2"/>
<path d="M18.9999 29.3902C24.7384 29.3902 29.3904 24.7382 29.3904 18.9997C29.3904 13.2611 24.7384 8.60913 18.9999 8.60913C13.2614 8.60913 8.60938 13.2611 8.60938 18.9997C8.60938 24.7382 13.2614 29.3902 18.9999 29.3902Z" fill="#FF7643"/>
<path d="M18.9999 23.898C21.7052 23.898 23.8983 21.705 23.8983 18.9997C23.8983 16.2944 21.7052 14.1013 18.9999 14.1013C16.2946 14.1013 14.1016 16.2944 14.1016 18.9997C14.1016 21.705 16.2946 23.898 18.9999 23.898Z" fill="#FFEBE2"/>
<path d="M19 12.147C22.7786 12.147 25.8528 15.2211 25.8528 18.9997C25.8528 19.4095 26.185 19.7419 26.5949 19.7419C27.0048 19.7419 27.3371 19.4095 27.3371 18.9997C27.3371 14.4026 23.597 10.6626 19 10.6626C18.5901 10.6626 18.2578 10.9949 18.2578 11.4048C18.2578 11.8147 18.5901 12.147 19 12.147Z" fill="white"/>
<path d="M12.147 18.9998C12.147 18.5898 11.8147 18.2576 11.4048 18.2576C10.9949 18.2576 10.6626 18.5898 10.6626 18.9998C10.6626 22.498 12.8714 25.6488 16.1588 26.8401C16.2423 26.8704 16.3277 26.8848 16.4117 26.8848C16.7153 26.8848 17.0001 26.6972 17.1095 26.3953C17.2491 26.0099 17.05 25.5843 16.6646 25.4446C13.9625 24.4654 12.147 21.8753 12.147 18.9998Z" fill="white"/>
<path d="M18.9744 25.8523C18.9727 25.8523 18.971 25.8523 18.9691 25.8523C18.5616 25.8523 18.23 26.1812 18.2271 26.5893C18.2242 26.9991 18.5541 27.3338 18.964 27.3367L19.0001 27.3367C19.41 27.3367 19.7423 27.0044 19.7423 26.5946C19.7423 26.1847 19.41 25.8524 19.0001 25.8524L18.9744 25.8523Z" fill="white"/>
<path d="M36.5801 16.248L33.3598 14.0716C33.2429 13.9926 33.1789 13.8563 33.1927 13.7159C33.208 13.5601 33.3035 13.4735 33.3591 13.4358C33.4147 13.398 33.5304 13.3412 33.6808 13.3844L35.9067 14.0241C36.0678 14.1108 36.2608 14.1383 36.4506 14.0875C36.8319 13.9854 37.0665 13.6026 36.9845 13.2164L36.9805 13.1976C36.9712 13.1538 36.9581 13.1115 36.9415 13.0709L36.4222 11.4727C36.0565 10.347 35.1052 9.51943 33.9398 9.31273L30.1128 8.63422C29.9739 8.60958 29.86 8.51117 29.8155 8.37735C29.7661 8.22884 29.8182 8.11083 29.8536 8.05376C29.889 7.99661 29.9716 7.8976 30.1266 7.87593L32.5675 7.5343C32.8394 7.49623 33.0681 7.31128 33.162 7.05337C33.256 6.79546 33.1999 6.50667 33.0163 6.30272L31.8424 4.99899C31.0504 4.11928 29.8448 3.74997 28.6961 4.03541L24.9238 4.9722C24.7868 5.00605 24.6427 4.96255 24.5477 4.85842C24.4422 4.74279 24.4417 4.6138 24.4509 4.54723C24.46 4.48065 24.4952 4.35663 24.6279 4.27373L26.7188 2.96882C26.9517 2.8235 27.0853 2.56151 27.0663 2.28764C27.0472 2.01385 26.8785 1.77286 26.6278 1.66124L25.0251 0.947623C23.9438 0.466315 22.6922 0.61928 21.7589 1.34714L18.6938 3.7372C18.5825 3.82397 18.4333 3.84274 18.3039 3.78626C18.1605 3.72355 18.1076 3.60591 18.0889 3.54141C18.0702 3.47684 18.0519 3.34926 18.1394 3.21953L19.5188 1.17696C19.6122 1.03862 19.6528 0.880084 19.6451 0.725338C19.6364 0.323222 19.3076 0 18.9034 0H17.149C15.9654 0 14.8843 0.648893 14.3277 1.69337L12.4997 5.12353C12.4334 5.248 12.3045 5.32593 12.1635 5.32689C12.1625 5.32689 12.1616 5.32689 12.1606 5.32689C12.0058 5.32689 11.9106 5.24169 11.8675 5.19063C11.8241 5.13927 11.7555 5.03017 11.7827 4.87601L12.2121 2.44899C12.2599 2.17869 12.1546 1.904 11.9383 1.73493C11.7221 1.56594 11.4302 1.53009 11.1794 1.64164L9.5767 2.35525C8.49541 2.83664 7.77178 3.86909 7.68806 5.04976L7.4133 8.92679C7.40336 9.06751 7.31734 9.19108 7.18886 9.24935C7.04636 9.31406 6.92361 9.27458 6.86304 9.24526C6.80256 9.21602 6.69538 9.14425 6.65761 8.99233L6.06267 6.60056C5.99639 6.33419 5.78851 6.12608 5.52221 6.05958C5.25606 5.993 4.97463 6.0791 4.79086 6.28305L3.61702 7.58677C2.82503 8.46634 2.58382 9.70393 2.98765 10.8166L4.31364 14.4703C4.36173 14.603 4.33345 14.7509 4.23979 14.8563C4.13588 14.9734 4.00845 14.9876 3.94046 14.9852C3.8733 14.983 3.74623 14.9611 3.64997 14.8376L2.13361 12.8946C1.96469 12.6782 1.69001 12.5725 1.41978 12.6203C1.1494 12.6679 0.927412 12.8608 0.84258 13.1219L0.300487 14.7904C-0.0652624 15.916 0.217807 17.1447 1.03918 17.9969L3.73659 20.7955C3.83448 20.897 3.86877 21.0436 3.82609 21.1779C3.77874 21.3272 3.66727 21.392 3.605 21.4174C3.54288 21.4429 3.41789 21.4743 3.27962 21.4007L1.1042 20.2423C0.861802 20.1134 0.568193 20.1286 0.340491 20.282C0.112862 20.4354 -0.0114539 20.702 0.0172687 20.975L0.200663 22.7197C0.324385 23.8969 1.08275 24.9043 2.17978 25.3487L5.7822 26.8081C5.91297 26.8611 6.00389 26.981 6.01962 27.1212C6.03707 27.2768 5.96166 27.3813 5.91512 27.4298C5.86866 27.4783 5.76758 27.5583 5.61105 27.5469L3.15249 27.3736C2.87892 27.3543 2.61655 27.4878 2.47101 27.7205C2.32547 27.9533 2.32027 28.2474 2.45758 28.4851L3.33477 30.0044C3.92659 31.0295 5.02933 31.6412 6.21193 31.6011L10.0965 31.4691C10.2366 31.4641 10.3693 31.5369 10.4407 31.6587C10.5199 31.7936 10.4934 31.9199 10.4707 31.9831C10.448 32.0463 10.3878 32.1603 10.2406 32.2138L7.92407 33.0555C7.66609 33.1492 7.48084 33.3777 7.44262 33.6495C7.4044 33.9213 7.51921 34.1921 7.74127 34.3534L9.16063 35.3846C10.1181 36.0802 11.3741 36.1907 12.4385 35.673L15.9335 33.9725C16.0604 33.9106 16.2104 33.9235 16.325 34.0054C16.4523 34.0966 16.4795 34.2226 16.4844 34.2897C16.4893 34.3567 16.4807 34.4854 16.3681 34.594L14.5942 36.3051C14.3966 36.4957 14.3204 36.7798 14.3959 37.0437C14.4715 37.3076 14.6866 37.5082 14.9551 37.5652L16.6712 37.93C16.8935 37.9773 17.117 38.0004 17.3387 38.0003C18.271 38.0003 19.1676 37.5921 19.7829 36.8602L22.2841 33.8851C22.3749 33.7771 22.5172 33.7278 22.6553 33.7561C22.8086 33.7876 22.8848 33.8916 22.9165 33.9509C22.9482 34.0101 22.9927 34.1311 22.934 34.2762L22.033 36.5025C21.9579 36.6494 21.9311 36.8222 21.9684 36.996C22.0544 37.3961 22.4479 37.6515 22.8483 37.566L24.5644 37.2013C25.7221 36.9552 26.6447 36.0957 26.9719 34.9582L28.0467 31.223C28.0858 31.0875 28.1956 30.9844 28.3333 30.9541C28.4862 30.9207 28.5981 30.9847 28.6512 31.0259C28.7042 31.0672 28.7941 31.1596 28.7995 31.316L28.8841 33.7792C28.8935 34.0535 29.0536 34.3003 29.3003 34.4207C29.5469 34.5411 29.8399 34.5155 30.0621 34.3542L31.4814 33.323C32.4389 32.6273 32.9321 31.4669 32.7685 30.2946L32.2311 26.4453C32.2117 26.3055 32.2701 26.1668 32.3836 26.0831C32.5097 25.9901 32.6378 26.003 32.7031 26.0193C32.7684 26.0354 32.8881 26.0832 32.9567 26.2241L34.0359 28.4399C34.156 28.6867 34.4027 28.8469 34.677 28.8566C34.9509 28.865 35.2086 28.7237 35.3458 28.486L36.223 26.9667C36.8149 25.9416 36.7935 24.6809 36.1671 23.6766L34.1105 20.3785C34.036 20.2589 34.0328 20.1083 34.1026 19.9856C34.1799 19.8495 34.3024 19.8093 34.3685 19.7974C34.4347 19.7854 34.5635 19.7806 34.6834 19.8814L36.5705 21.4667C36.7808 21.6432 37.0712 21.6894 37.3258 21.5866C37.5803 21.4838 37.7574 21.2489 37.7861 20.9759L37.9695 19.2311C38.093 18.0538 37.5608 16.9109 36.5801 16.248ZM36.4931 19.0757L36.4558 19.4313L35.6381 18.7445C35.2121 18.3866 34.6537 18.2379 34.1061 18.3362C33.5585 18.4345 33.0868 18.7684 32.812 19.2521C32.4728 19.8488 32.4878 20.5813 32.851 21.1637L34.9076 24.4618C35.2431 24.9998 35.2546 25.6752 34.9375 26.2243L34.7587 26.5339L34.2911 25.5739C34.0475 25.0736 33.5979 24.7105 33.0577 24.5776C32.5174 24.4449 31.9506 24.5578 31.5029 24.8879C30.9504 25.2951 30.6661 25.9704 30.761 26.6502L31.2983 30.4996C31.386 31.1276 31.1218 31.7492 30.6088 32.1218L30.3196 32.3319L30.2829 31.2647C30.2638 30.7087 30.0008 30.1941 29.5613 29.853C29.1219 29.5118 28.558 29.3846 28.0147 29.504C27.3443 29.6513 26.81 30.1526 26.6202 30.8122L25.5454 34.5474C25.37 35.1567 24.8758 35.6171 24.2557 35.749L23.9093 35.8226L24.3098 34.8326C24.5185 34.3169 24.4876 33.7399 24.2248 33.2495C23.962 32.7591 23.4988 32.4136 22.9538 32.3016C22.2814 32.1637 21.5894 32.4041 21.1478 32.9295L18.6467 35.9046C18.2386 36.3899 17.5998 36.6094 16.9797 36.4778L16.63 36.4034L17.3985 35.662C17.799 35.2758 18.0053 34.736 17.9648 34.1812C17.9243 33.6263 17.6416 33.1222 17.1892 32.7982C16.6311 32.3986 15.9011 32.337 15.284 32.6373L11.789 34.3379C11.2189 34.6153 10.5461 34.5561 10.0331 34.1835L9.74384 33.9733L10.7475 33.6086C11.2704 33.4186 11.6784 33.0095 11.8671 32.4861C12.0557 31.9627 12.0025 31.3872 11.721 30.9073C11.3738 30.3153 10.7326 29.9615 10.046 29.9854L6.16146 30.1173C5.52785 30.138 4.93715 29.8111 4.62016 29.262L4.44137 28.9524L5.50655 29.0275C6.062 29.0666 6.60083 28.8589 6.98602 28.4574C7.37122 28.056 7.55662 27.5086 7.49472 26.9558C7.41827 26.2737 6.97563 25.6898 6.33951 25.4321L2.73708 23.9728C2.14942 23.7347 1.74315 23.195 1.67687 22.5645L1.63954 22.2088L2.58204 22.7107C3.07315 22.9723 3.65027 23.0018 4.16535 22.7917C4.68057 22.5817 5.0726 22.1571 5.24092 21.6268C5.44851 20.9726 5.28159 20.2592 4.80526 19.7651L2.10793 16.9665C1.66789 16.51 1.51626 15.8518 1.7122 15.2488L1.82264 14.9087L2.47969 15.7506C2.82199 16.1892 3.33722 16.4509 3.89326 16.4685C4.44908 16.4849 4.98019 16.2577 5.34965 15.8417C5.80536 15.3285 5.94303 14.609 5.70887 13.9637L4.38296 10.3101C4.16661 9.71403 4.29582 9.05111 4.72013 8.57989L4.95934 8.31419L5.2171 9.35051C5.35143 9.89045 5.7157 10.339 6.21653 10.5813C6.71735 10.8236 7.29515 10.8307 7.80184 10.6011C8.4269 10.3176 8.84542 9.71618 8.89389 9.03159L9.16865 5.15456C9.21347 4.52214 9.60112 3.96899 10.1803 3.71115L10.507 3.56568L10.3209 4.61721C10.224 5.16502 10.3743 5.723 10.7332 6.14812C11.0894 6.56991 11.609 6.81104 12.1606 6.81104C12.1649 6.81104 12.1693 6.81104 12.1736 6.81104C12.86 6.80629 13.4868 6.42703 13.8095 5.82141L15.6375 2.39125C15.9358 1.83201 16.515 1.48437 17.149 1.48437H17.5203L16.9096 2.3888C16.5982 2.84985 16.5085 3.42074 16.6636 3.95511C16.8187 4.48948 17.2 4.92366 17.7097 5.14647C18.3387 5.42137 19.0656 5.32994 19.6068 4.90785L22.6719 2.51779C23.1718 2.12792 23.8423 2.04598 24.4215 2.30382L24.7481 2.44921L23.8422 3.01461C23.3702 3.30911 23.0561 3.7942 22.9804 4.34535C22.9047 4.89657 23.0764 5.44831 23.4516 5.85926C23.9143 6.36618 24.6158 6.57837 25.2817 6.41286L29.0539 5.47607C29.6692 5.32326 30.315 5.52105 30.7392 5.99226L30.9785 6.25796L29.9209 6.40603C29.37 6.48314 28.8857 6.7985 28.5924 7.2712C28.299 7.74397 28.2315 8.3179 28.407 8.84582C28.6236 9.49709 29.1779 9.97609 29.8537 10.096L33.6808 10.7745C34.3051 10.8852 34.8147 11.3285 35.0105 11.9315L35.1147 12.2522L34.0907 11.9579C33.5561 11.8043 32.9853 11.8955 32.5251 12.208C32.0648 12.5205 31.7697 13.0174 31.7154 13.5711C31.6483 14.2542 31.9599 14.9173 32.5286 15.3016L35.7489 17.478C36.2742 17.833 36.5594 18.4452 36.4931 19.0757Z" fill="#333333"/>
<path d="M19 9.35156L19.0349 9.35163C19.0357 9.35163 19.0364 9.35163 19.0372 9.35163C19.446 9.35163 19.7781 9.02077 19.7793 8.6116C19.7805 8.20169 19.4492 7.86845 19.0393 7.86726L19 7.86719C18.5901 7.86719 18.2578 8.19946 18.2578 8.60937C18.2578 9.01928 18.5901 9.35156 19 9.35156Z" fill="#333333"/>
<path d="M22.0867 8.30093C21.6928 8.18767 21.2815 8.41485 21.1681 8.80873C21.0546 9.20261 21.2821 9.61385 21.6759 9.72733C25.781 10.9098 28.6482 14.7228 28.6482 19C28.6482 24.3201 24.32 28.6483 18.9998 28.6483C13.6797 28.6483 9.35149 24.3201 9.35149 19C9.35149 14.6766 12.258 10.8524 16.4193 9.70039C16.8144 9.59099 17.046 9.18212 16.9366 8.78706C16.8272 8.39199 16.4184 8.16043 16.0233 8.26975C11.2212 9.59916 7.86719 14.0115 7.86719 18.9999C7.86719 25.1385 12.8613 30.1326 18.9999 30.1326C25.1385 30.1326 30.1326 25.1385 30.1326 18.9999C30.1326 16.5359 29.344 14.2012 27.852 12.2479C26.4081 10.3576 24.3606 8.95583 22.0867 8.30093Z" fill="#333333"/>
<path d="M13.3594 18.9997C13.3594 22.1099 15.8897 24.6402 18.9999 24.6402C22.1101 24.6402 24.6405 22.1098 24.6405 18.9997C24.6405 15.8894 22.1101 13.3591 18.9999 13.3591C15.8897 13.3591 13.3594 15.8895 13.3594 18.9997ZM18.9999 14.8435C21.2916 14.8435 23.1561 16.708 23.1561 18.9997C23.1561 21.2915 21.2916 23.1558 18.9999 23.1558C16.7083 23.1558 14.8437 21.2914 14.8437 18.9997C14.8437 16.708 16.7081 14.8435 18.9999 14.8435Z" fill="#333333"/>
</g>
<defs>
<clipPath id="clip0">
<rect width="38" height="38" fill="white"/>
</clipPath>
</defs>
</svg>
