<svg width="16" height="16" viewBox="0 0 16 16" fill="none" xmlns="http://www.w3.org/2000/svg">
<path fill-rule="evenodd" clip-rule="evenodd" d="M2.66699 3.33333C2.49018 3.33333 2.32061 3.40357 2.19559 3.5286C2.07056 3.65362 2.00033 3.82319 2.00033 4V13.3333C2.00033 13.5101 2.07056 13.6797 2.19559 13.8047C2.32061 13.9298 2.49018 14 2.66699 14H12.0003C12.1771 14 12.3467 13.9298 12.4717 13.8047C12.5968 13.6797 12.667 13.5101 12.667 13.3333V9.77333C12.667 9.40514 12.9655 9.10667 13.3337 9.10667C13.7018 9.10667 14.0003 9.40514 14.0003 9.77333V13.3333C14.0003 13.8638 13.7896 14.3725 13.4145 14.7475C13.0395 15.1226 12.5308 15.3333 12.0003 15.3333H2.66699C2.13656 15.3333 1.62785 15.1226 1.25278 14.7475C0.877706 14.3725 0.666992 13.8638 0.666992 13.3333V4C0.666992 3.46957 0.877706 2.96086 1.25278 2.58579C1.62785 2.21071 2.13656 2 2.66699 2H6.22699C6.59518 2 6.89366 2.29848 6.89366 2.66667C6.89366 3.03486 6.59518 3.33333 6.22699 3.33333H2.66699Z" fill="#FF7643"/>
<path fill-rule="evenodd" clip-rule="evenodd" d="M11.5289 0.86201C11.7893 0.601661 12.2114 0.601661 12.4717 0.86201L15.1384 3.52868C15.3987 3.78903 15.3987 4.21114 15.1384 4.47149L8.47173 11.1382C8.34671 11.2632 8.17714 11.3334 8.00033 11.3334H5.33366C4.96547 11.3334 4.66699 11.0349 4.66699 10.6667V8.00008C4.66699 7.82327 4.73723 7.6537 4.86225 7.52868L11.5289 0.86201ZM6.00033 8.27622V10.0001H7.72418L13.7242 4.00008L12.0003 2.27622L6.00033 8.27622Z" fill="#FF7643"/>
</svg>
