<svg width="14" height="15" viewBox="0 0 14 15" fill="none" xmlns="http://www.w3.org/2000/svg">
<path d="M12.75 0.25H0.75C0.551088 0.25 0.360322 0.329018 0.21967 0.46967C0.0790178 0.610322 0 0.801088 0 1V2.9425C0 3.33475 0.15975 3.72025 0.43725 3.99775L4.5 8.0605V13.75C4.50015 13.8778 4.53291 14.0034 4.59517 14.115C4.65744 14.2266 4.74716 14.3204 4.85583 14.3876C4.9645 14.4548 5.08853 14.4932 5.21618 14.4991C5.34382 14.505 5.47085 14.4782 5.58525 14.4213L8.58525 12.9213C8.8395 12.7938 9 12.5343 9 12.25V8.0605L13.0627 3.99775C13.3403 3.72025 13.5 3.33475 13.5 2.9425V1C13.5 0.801088 13.421 0.610322 13.2803 0.46967C13.1397 0.329018 12.9489 0.25 12.75 0.25ZM7.71975 7.21975C7.64997 7.28928 7.59463 7.37192 7.55691 7.46293C7.5192 7.55393 7.49986 7.65149 7.5 7.75V11.7865L6 12.5365V7.75C6.00014 7.65149 5.9808 7.55393 5.94309 7.46293C5.90537 7.37192 5.85003 7.28928 5.78025 7.21975L1.5 2.9425V1.75H12.0007L12.0023 2.93725L7.71975 7.21975Z" fill="#FF7643"/>
</svg>
