<svg width="14" height="14" viewBox="0 0 14 14" fill="none" xmlns="http://www.w3.org/2000/svg">
<path fill-rule="evenodd" clip-rule="evenodd" d="M1 0C0.447715 0 0 0.447715 0 1V5C0 5.55228 0.447715 6 1 6H5C5.55228 6 6 5.55228 6 5V1C6 0.447715 5.55228 0 5 0H1ZM1 8C0.447715 8 0 8.44772 0 9V13C0 13.5523 0.447715 14 1 14H5C5.55228 14 6 13.5523 6 13V9C6 8.44772 5.55228 8 5 8H1ZM8 1C8 0.447715 8.44772 0 9 0H13C13.5523 0 14 0.447715 14 1V5C14 5.55228 13.5523 6 13 6H9C8.44772 6 8 5.55228 8 5V1ZM9 8C8.44772 8 8 8.44772 8 9V13C8 13.5523 8.44772 14 9 14H13C13.5523 14 14 13.5523 14 13V9C14 8.44772 13.5523 8 13 8H9Z" fill="#FF7643"/>
</svg>
