<svg width="38" height="38" viewBox="0 0 38 38" fill="none" xmlns="http://www.w3.org/2000/svg">
<g clip-path="url(#clip0)">
<path d="M28.8284 9.17139C29.4467 9.78963 29.4467 10.7919 28.8284 11.4102C28.21 12.0284 27.2078 12.0284 26.5896 11.4102C25.9712 10.7919 25.9712 9.78956 26.5896 9.17139C27.2078 8.553 28.2101 8.553 28.8284 9.17139ZM20.9923 3.57381C17.2825 7.28356 17.2825 13.2979 20.9923 17.0073C24.7019 20.7169 30.7163 20.7171 34.4257 17.0073C38.1352 13.2979 38.1352 7.28334 34.4257 3.57403C30.7165 -0.135643 24.7019 -0.135643 20.9923 3.57381Z" fill="#FFEBE2"/>
<path d="M27.7086 11.8738C28.583 11.8738 29.2918 11.165 29.2918 10.2907C29.2918 9.41632 28.583 8.70752 27.7086 8.70752C26.8343 8.70752 26.1255 9.41632 26.1255 10.2907C26.1255 11.165 26.8343 11.8738 27.7086 11.8738Z" fill="#FF8C61"/>
<path d="M4.68329 8.68793L11.3999 15.4045L14.7582 12.0463L8.04154 5.32968L4.68329 8.68793Z" fill="#FF8C61"/>
<path d="M14.7591 12.0462L11.4007 15.4048L11.0169 15.7886C10.4013 16.4042 10.4013 17.4114 11.0169 18.0272L19.9728 26.9831C20.5885 27.5986 21.5958 27.5986 22.2113 26.9831L26.3371 22.8571C23.4754 22.5448 20.806 21.2649 18.7704 19.2292C16.6514 17.1103 15.442 14.4265 15.1425 11.6626L14.7591 12.0462Z" fill="#FF7643"/>
<path d="M19.9728 26.9829L11.0169 18.0271L2.64245 26.4012C0.179654 28.8642 0.179803 32.8942 2.64245 35.357C5.10518 37.8197 9.13556 37.8197 11.5983 35.357L19.9728 26.9829Z" fill="#FF7643"/>
<path d="M27.1802 19.775C24.9283 19.6502 22.7123 18.7277 20.9921 17.0074C19.2719 15.2872 18.3491 13.0713 18.2244 10.8193L15.4932 13.5505C16.046 15.6309 17.1384 17.5976 18.7702 19.2291C20.3506 20.8096 22.3128 21.9343 24.4505 22.5046L27.1802 19.775Z" fill="#FF8C61"/>
<path d="M34.9859 3.01418C33.0424 1.07054 30.4583 0.000158973 27.7095 0.000158973C24.9608 0.000158973 22.3765 1.07062 20.433 3.01418C18.4892 4.95775 17.4187 7.54182 17.4187 10.2906C17.4187 10.3617 17.42 10.4325 17.4213 10.5034L15.981 11.9437C15.4839 8.38532 16.6 4.64269 19.3307 1.91203C19.511 1.73168 19.6996 1.55482 19.8913 1.38664C20.22 1.09815 20.2525 0.597991 19.9641 0.269499C19.6756 -0.059216 19.1754 -0.0917239 18.8468 0.196764C18.6295 0.387581 18.4156 0.587972 18.211 0.792518C15.5514 3.45222 14.2434 6.95884 14.285 10.4522L9.16211 5.32936L9.16219 5.32929C9.47124 5.02017 9.47124 4.51889 9.16204 4.2097C8.85299 3.90073 8.35172 3.90073 8.04245 4.20985L7.48395 4.76849C7.48358 4.76886 7.48306 4.76931 7.48269 4.76968L4.12437 8.12808L3.56461 8.68784C3.25549 8.99696 3.25549 9.49823 3.56454 9.80743C3.71913 9.96202 3.92175 10.0393 4.12437 10.0393C4.32698 10.0393 4.52945 9.96195 4.68405 9.80743L4.68413 9.80735L10.2905 15.4137C9.70643 16.1344 9.60772 17.1201 9.99381 17.9307L2.08306 25.8415C-0.505398 28.43 -0.68048 32.5305 1.55529 35.3252L0.236047 36.6444C-0.0729994 36.9535 -0.0730737 37.4548 0.236047 37.7639C0.390645 37.9185 0.593262 37.9959 0.795805 37.9959C0.998348 37.9959 1.20097 37.9185 1.35556 37.764L2.67495 36.4448C3.96992 37.481 5.54491 38 7.12073 38C8.9451 38 10.7695 37.3055 12.1585 35.9166L20.0688 28.0064C20.384 28.1565 20.7319 28.236 21.0926 28.236C21.728 28.236 22.3244 27.9897 22.7715 27.5424L26.8972 23.4165C26.8998 23.4139 26.9022 23.411 26.9048 23.4084C26.9164 23.3965 26.9273 23.3839 26.9382 23.3713C26.944 23.3644 26.95 23.3578 26.9557 23.3509C26.9667 23.3373 26.9768 23.3229 26.9869 23.3085C26.9915 23.3021 26.9962 23.2959 27.0005 23.2893C27.0125 23.2712 27.0235 23.2521 27.0341 23.2326C27.0356 23.2298 27.0373 23.2271 27.0388 23.2244C27.0503 23.2024 27.0607 23.1797 27.0702 23.1565C27.0738 23.148 27.0764 23.1393 27.0795 23.1307C27.0851 23.1157 27.0906 23.1011 27.0952 23.0858C27.0986 23.0744 27.1011 23.0628 27.104 23.0513C27.1072 23.0386 27.1107 23.026 27.1133 23.013C27.1159 23 27.1176 22.9867 27.1194 22.9735C27.121 22.9632 27.1231 22.9532 27.1244 22.9427C27.1245 22.9412 27.1244 22.9397 27.1245 22.9381C27.1262 22.9217 27.1268 22.9052 27.1274 22.8887C27.1279 22.8787 27.1288 22.8685 27.1288 22.8586C27.1288 22.847 27.1279 22.8356 27.1274 22.8241C27.1248 22.7609 27.1154 22.6992 27.0986 22.6401C27.0976 22.6371 27.0972 22.6341 27.0963 22.631C27.0924 22.6177 27.0871 22.6047 27.0825 22.5916C27.0784 22.5803 27.075 22.5688 27.0704 22.5575C27.0683 22.5523 27.0655 22.5473 27.0633 22.5421C27.0401 22.4887 27.0106 22.4376 26.9752 22.3893C26.9679 22.3794 26.9611 22.369 26.9533 22.3595C26.9473 22.3519 26.9403 22.3448 26.9339 22.3376C26.9229 22.3249 26.9121 22.3122 26.9003 22.3003C26.8992 22.2992 26.8983 22.298 26.8972 22.2969C26.8913 22.2911 26.885 22.2861 26.8792 22.2805C26.8671 22.2691 26.855 22.2578 26.8422 22.2472C26.8336 22.24 26.8245 22.2335 26.8156 22.2268C26.8041 22.2178 26.7924 22.2089 26.7802 22.2007C26.77 22.1937 26.7595 22.1876 26.749 22.1813C26.7375 22.1743 26.7261 22.1672 26.7143 22.1607C26.7027 22.1545 26.691 22.149 26.6794 22.1433C26.6679 22.1378 26.6565 22.1322 26.6447 22.1272C26.6319 22.122 26.619 22.1173 26.606 22.1127C26.5947 22.1087 26.5836 22.1044 26.572 22.1008C26.5577 22.0963 26.5433 22.0929 26.5289 22.0893C26.5182 22.0867 26.5076 22.0837 26.4969 22.0814C26.4805 22.0781 26.4641 22.0758 26.4477 22.0734C26.4395 22.0723 26.4319 22.0705 26.4236 22.0696C26.2995 22.056 26.1759 22.0399 26.0525 22.0223L27.4968 20.5781C27.5677 20.5796 27.6384 20.5807 27.7096 20.5807C30.4584 20.5807 33.0425 19.5103 34.9861 17.5666C36.9296 15.623 38 13.0388 38 10.2901C38 7.5413 36.9295 4.95775 34.9859 3.01418ZM8.04252 6.44895L13.6397 12.046L11.4009 14.2848L5.80379 8.68776L8.04252 6.44895ZM11.039 34.7971C9.99745 35.8387 8.60592 36.4123 7.12088 36.4123C5.63583 36.4123 4.24445 35.8388 3.20294 34.7973C3.20161 34.7959 3.2002 34.7946 3.19871 34.7932C1.04229 32.6324 1.04362 29.1202 3.20265 26.9612L11.0172 19.1467L18.8535 26.9829L11.039 34.7971ZM21.6521 26.423C21.504 26.5712 21.3053 26.6528 21.0926 26.6528C20.88 26.6528 20.6813 26.5711 20.533 26.4229L11.5771 17.4672C11.2685 17.1586 11.2685 16.6566 11.5771 16.348L11.9604 15.9647C11.9605 15.9645 11.9608 15.9644 11.9609 15.9642L14.6234 13.3018C14.651 13.4228 14.6804 13.5434 14.7113 13.6638C14.72 13.7242 14.7351 13.7838 14.7578 13.8411C15.3515 16.0212 16.5023 18.0798 18.2112 19.7887C19.8646 21.442 21.9301 22.6321 24.1703 23.2462C24.2175 23.264 24.2658 23.2772 24.315 23.2856C24.4413 23.3187 24.5684 23.3496 24.696 23.3791L21.6521 26.423ZM24.2226 21.6136C22.3872 21.0466 20.699 20.0374 19.3308 18.6692C17.9161 17.2547 16.9356 15.5683 16.3872 13.7768L17.6573 12.5068C18.0727 14.4095 19.0227 16.1569 20.4329 17.5671C21.8431 18.9773 23.5907 19.9273 25.4934 20.3428L24.2226 21.6136ZM33.8664 16.4476C32.222 18.0921 30.0352 18.9979 27.7096 18.9979C25.3838 18.9979 23.1973 18.0922 21.5526 16.4475C19.9082 14.803 19.0023 12.6163 19.0023 10.2906C19.0023 7.96487 19.9081 5.77831 21.5526 4.13385C23.1973 2.48931 25.3839 1.58347 27.7096 1.58347C30.0353 1.58347 32.222 2.48916 33.8664 4.13385C35.5109 5.77831 36.4167 7.96494 36.4167 10.2906C36.4166 12.6165 35.5109 14.803 33.8664 16.4476Z" fill="#333333"/>
<path d="M25.5339 5.1925C27.6265 4.30054 30.0184 4.76367 31.6273 6.37266C31.7819 6.52718 31.9845 6.60451 32.187 6.60451C32.3897 6.60451 32.5922 6.52718 32.7468 6.37266C33.0558 6.06353 33.0558 5.56226 32.7468 5.25306C30.6783 3.18473 27.6034 2.58928 24.9131 3.73596C24.511 3.9074 24.3239 4.37246 24.4952 4.77458C24.6667 5.17684 25.1318 5.36402 25.5339 5.1925Z" fill="#333333"/>
<path d="M23.2316 6.60465C23.4363 6.60465 23.6409 6.52576 23.7958 6.36826L23.8246 6.33962C24.1312 6.02797 24.1271 5.5267 23.8154 5.2201C23.5039 4.91335 23.0027 4.91743 22.696 5.22915L22.6673 5.2578C22.3607 5.56945 22.3647 6.07065 22.6764 6.37732C22.8306 6.52902 23.0311 6.60465 23.2316 6.60465Z" fill="#333333"/>
<path d="M31.6277 14.2086L31.599 14.2371C31.2899 14.5463 31.2899 15.0475 31.599 15.3567C31.7536 15.5113 31.9563 15.5886 32.1588 15.5886C32.3614 15.5886 32.564 15.5113 32.7185 15.3567L32.7472 15.3282C33.0563 15.0191 33.0563 14.5178 32.7472 14.2086C32.438 13.8995 31.9367 13.8995 31.6277 14.2086Z" fill="#333333"/>
<path d="M29.8847 15.3888C27.792 16.2808 25.4001 15.8176 23.7913 14.2089C23.4823 13.8997 22.981 13.8998 22.6717 14.2089C22.3627 14.5181 22.3627 15.0192 22.6719 15.3284C24.0412 16.6979 25.8514 17.4214 27.6997 17.4214C28.6429 17.4214 29.5964 17.2327 30.5054 16.8453C30.9078 16.674 31.0948 16.2089 30.9233 15.8067C30.7519 15.4044 30.287 15.2175 29.8847 15.3888Z" fill="#333333"/>
<path d="M26.0305 8.61142C25.582 9.06 25.335 9.65628 25.335 10.2906C25.335 10.925 25.582 11.5213 26.0305 11.9698C26.479 12.4183 27.0754 12.6653 27.7097 12.6653C28.3439 12.6653 28.9403 12.4183 29.3889 11.9698C29.8375 11.5213 30.0844 10.925 30.0844 10.2906C30.0844 9.65628 29.8373 9.05993 29.3889 8.6115C28.9404 8.16285 28.3441 7.91577 27.7097 7.91577C27.0752 7.91577 26.4789 8.16285 26.0305 8.61142ZM28.5011 10.2906C28.5011 10.5021 28.4188 10.7008 28.2693 10.8502C28.1197 10.9998 27.921 11.0821 27.7096 11.0821C27.4982 11.0821 27.2994 10.9998 27.1501 10.8502C27.0005 10.7008 26.9181 10.5021 26.9181 10.2906C26.9181 10.0793 27.0005 9.88049 27.1501 9.73094C27.2996 9.58139 27.4982 9.49908 27.7096 9.49908C27.921 9.49908 28.1196 9.58139 28.2693 9.73102C28.4188 9.88049 28.5011 10.0793 28.5011 10.2906Z" fill="#333333"/>
<path d="M8.51157 25.0106C8.20252 24.7015 7.70118 24.7016 7.39206 25.0106L4.32215 28.0802C4.0131 28.3894 4.01302 28.8906 4.32215 29.1998C4.47674 29.3544 4.67936 29.4318 4.8819 29.4318C5.08459 29.4318 5.28706 29.3545 5.44166 29.1998L8.51142 26.1302C8.82069 25.821 8.82069 25.3198 8.51157 25.0106Z" fill="white"/>
<path d="M9.57238 24.7414C9.77507 24.7414 9.97754 24.6641 10.1321 24.5095L10.1733 24.4684C10.4824 24.1592 10.4824 23.658 10.1733 23.3488C9.86414 23.0396 9.36286 23.0396 9.05367 23.3488L9.01255 23.3899C8.7035 23.6991 8.7035 24.2003 9.01255 24.5095C9.16722 24.6641 9.36976 24.7414 9.57238 24.7414Z" fill="white"/>
<path d="M12.4119 25.5879C12.1028 25.2787 11.6015 25.2787 11.2923 25.5879L6.56089 30.3191C6.25184 30.6283 6.25184 31.1296 6.56089 31.4387C6.71548 31.5933 6.9181 31.6707 7.12064 31.6707C7.32334 31.6707 7.5258 31.5933 7.6804 31.4387L12.4118 26.7074C12.721 26.3982 12.721 25.897 12.4119 25.5879Z" fill="white"/>
<path d="M14.6509 27.8268C14.3418 27.5177 13.8406 27.5177 13.5314 27.8268L8.79968 32.5581C8.49064 32.8673 8.49056 33.3685 8.79968 33.6777C8.95428 33.8323 9.1569 33.9096 9.35944 33.9096C9.56206 33.9096 9.7646 33.8323 9.9192 33.6777L14.6508 28.9464C14.96 28.6371 14.96 28.136 14.6509 27.8268Z" fill="white"/>
</g>
<defs>
<clipPath id="clip0">
<rect width="38" height="38" fill="white"/>
</clipPath>
</defs>
</svg>
