<svg width="38" height="38" viewBox="0 0 38 38" fill="none" xmlns="http://www.w3.org/2000/svg">
<g clip-path="url(#clip0)">
<path fill-rule="evenodd" clip-rule="evenodd" d="M0.742188 11.2641V17.7124C0.742188 18.8569 1.68048 19.7952 2.82707 19.7952H4.52481V9.1792H2.82707C1.68048 9.1792 0.742188 10.1175 0.742188 11.2641Z" fill="#FFEBE2"/>
<path fill-rule="evenodd" clip-rule="evenodd" d="M33.4731 9.1792V19.7952H35.173C36.3196 19.7952 37.2579 18.8569 37.2579 17.7124V11.2641C37.2579 10.1175 36.3196 9.1792 35.173 9.1792H33.4731Z" fill="#FFEBE2"/>
<path fill-rule="evenodd" clip-rule="evenodd" d="M29.4781 10.8265V21.8739C29.4781 22.5639 28.9143 23.1299 28.2221 23.1299H9.77604C9.08598 23.1299 8.52006 22.5639 8.52006 21.8739V10.8265C8.52006 10.1344 9.08598 9.57056 9.77604 9.57056H10.1063V7.10483C10.1063 6.54938 10.5608 6.09501 11.1162 6.09501H14.0615C14.6169 6.09501 15.0713 6.54946 15.0713 7.10483V9.57056H23.2593V7.10483C23.2593 6.54938 23.7137 6.09501 24.2691 6.09501H27.2123C27.7677 6.09501 28.2221 6.54946 28.2221 7.10483V9.57056C28.9143 9.57056 29.4781 10.1344 29.4781 10.8265ZM4.5249 25.6882C4.5249 32.0502 9.72973 37.2552 16.0916 37.2552H21.9086C28.2684 37.2552 33.4732 32.0503 33.4732 25.6882V19.7953V9.17926V2.89714C33.4732 1.71478 32.5054 0.744873 31.321 0.744873H6.67925C5.49481 0.744873 4.52498 1.71263 4.52498 2.89714V9.17926V19.7953V25.6882H4.5249Z" fill="#FF7643"/>
<path fill-rule="evenodd" clip-rule="evenodd" d="M23.2588 9.57052H28.2216V7.1048C28.2216 6.54935 27.7672 6.09497 27.2118 6.09497H24.2686C23.7132 6.09497 23.2588 6.54942 23.2588 7.1048V9.57052Z" fill="white"/>
<path fill-rule="evenodd" clip-rule="evenodd" d="M10.1064 9.57052H15.0714V7.1048C15.0714 6.54935 14.617 6.09497 14.0616 6.09497H11.1163C10.5609 6.09497 10.1064 6.54942 10.1064 7.1048V9.57052Z" fill="white"/>
<path fill-rule="evenodd" clip-rule="evenodd" d="M8.52002 10.8265V21.8739C8.52002 22.564 9.08593 23.1299 9.776 23.1299H28.2221C28.9143 23.1299 29.4781 22.564 29.4781 21.8739V10.8265C29.4781 10.1344 28.9143 9.57056 28.2221 9.57056H23.2592H15.0712H10.1062H9.77592C9.08593 9.57056 8.52002 10.1344 8.52002 10.8265ZM11.722 13.044H26.276V19.6544H11.722V13.044Z" fill="white"/>
<path fill-rule="evenodd" clip-rule="evenodd" d="M11.7222 13.0439H26.2762V19.6543H11.7222V13.0439Z" fill="#FFEBE2"/>
<path d="M26.2757 12.3018H11.7217C11.3118 12.3018 10.9795 12.6341 10.9795 13.0439V19.6543C10.9795 20.0642 11.3118 20.3964 11.7217 20.3964H26.2757C26.6856 20.3964 27.0179 20.0641 27.0179 19.6543V13.0439C27.0179 12.634 26.6856 12.3018 26.2757 12.3018ZM25.5335 18.912H12.4639V13.7861H25.5335V18.912Z" fill="#333333"/>
<path d="M35.173 8.43707H34.2153V2.89711C34.2153 1.30111 32.9169 0.00268555 31.3209 0.00268555H22.3314C21.9216 0.00268555 21.5892 0.334991 21.5892 0.744844C21.5892 1.1547 21.9216 1.487 22.3314 1.487H31.3209C32.0984 1.487 32.731 2.11956 32.731 2.89711V25.6882C32.731 31.657 27.8761 36.513 21.9086 36.513H16.0915C10.1229 36.513 5.26702 31.657 5.26702 25.6882V2.89711C5.26702 2.11956 5.90046 1.487 6.67913 1.487H15.6666C16.0764 1.487 16.4088 1.1547 16.4088 0.744844C16.4088 0.334991 16.0764 0.00268555 15.6666 0.00268555H6.67913C5.08194 0.00268555 3.78263 1.30119 3.78263 2.89711V8.437H2.82705C1.26822 8.43707 0 9.70529 0 11.2641V17.7125C0 19.2702 1.26822 20.5374 2.82705 20.5374H3.78263V25.6882C3.78263 28.9634 5.06643 32.0509 7.39762 34.3822C9.72888 36.7135 12.8164 37.9973 16.0915 37.9973H21.9086C25.1828 37.9973 28.2697 36.7135 30.6007 34.3822C32.9316 32.0509 34.2154 28.9633 34.2154 25.6882V20.5374H35.173C36.7319 20.5374 38.0001 19.2701 38.0001 17.7125V11.2641C38 9.70529 36.7318 8.43707 35.173 8.43707ZM2.82705 19.0531C2.08667 19.0531 1.48439 18.4517 1.48439 17.7125V11.2641C1.48439 10.5237 2.08667 9.92139 2.82705 9.92139H3.78263V19.053H2.82705V19.0531ZM36.5157 17.7125C36.5157 18.4517 35.9134 19.053 35.173 19.053H34.2153V9.92139H35.173C35.9133 9.92139 36.5156 10.5237 36.5156 11.2641V17.7125H36.5157Z" fill="#333333"/>
<path d="M12.2964 28.0866C12.2964 28.4966 12.6287 28.8288 13.0385 28.8288H13.0449C13.4547 28.8288 13.7838 28.4965 13.7838 28.0866C13.7838 27.6768 13.4484 27.3445 13.0385 27.3445C12.6287 27.3444 12.2964 27.6767 12.2964 28.0866Z" fill="white"/>
<path d="M16.2686 28.0866C16.2686 28.4966 16.6009 28.8288 17.0107 28.8288H17.0149C17.4248 28.8288 17.755 28.4965 17.755 28.0866C17.755 27.6768 17.4206 27.3445 17.0107 27.3445C16.6009 27.3444 16.2686 27.6767 16.2686 28.0866Z" fill="white"/>
<path d="M20.2407 28.0866C20.2407 28.4966 20.573 28.8288 20.9829 28.8288H20.9871C21.397 28.8288 21.7272 28.4965 21.7272 28.0866C21.7272 27.6768 21.3927 27.3445 20.9829 27.3445C20.573 27.3445 20.2407 27.6767 20.2407 28.0866Z" fill="white"/>
<path d="M24.2124 28.0866C24.2124 28.4966 24.5447 28.8288 24.9546 28.8288H24.9588C25.3686 28.8288 25.6989 28.4965 25.6989 28.0866C25.6989 27.6768 25.3644 27.3445 24.9546 27.3445C24.5447 27.3445 24.2124 27.6767 24.2124 28.0866Z" fill="white"/>
<path d="M27.2124 5.35286H24.2691C23.3031 5.35286 22.5171 6.1388 22.5171 7.10492V8.82841H15.8135V7.10484C15.8135 6.1388 15.0276 5.35278 14.0614 5.35278H11.1161C10.1501 5.35278 9.36411 6.13872 9.36411 7.10484V8.8713C8.45929 9.06172 7.77783 9.86599 7.77783 10.8265V21.8739C7.77783 22.9757 8.6742 23.8721 9.77604 23.8721H28.2221C29.324 23.8721 30.2203 22.9757 30.2203 21.8739V10.8265C30.2203 9.98695 29.6996 9.26721 28.9643 8.97186V7.10484C28.9643 6.1388 28.1784 5.35286 27.2124 5.35286ZM24.0016 7.10484C24.0016 6.95977 24.1242 6.83718 24.2692 6.83718H27.2124C27.3574 6.83718 27.48 6.95977 27.48 7.10484V8.82834H24.0016V7.10484ZM11.1162 6.83718H14.0615C14.2066 6.83718 14.3292 6.95977 14.3292 7.10484V8.82834H10.8486V7.10484C10.8486 6.95977 10.9712 6.83718 11.1162 6.83718ZM28.736 21.874C28.736 22.1573 28.5055 22.3878 28.2222 22.3878H9.77612C9.49761 22.3878 9.2623 22.1525 9.2623 21.874V10.8265C9.2623 10.5432 9.49279 10.3127 9.77612 10.3127H28.2222C28.5055 10.3127 28.736 10.5432 28.736 10.8265V21.874Z" fill="#333333"/>
<path d="M18.999 1.487H19.0033C19.4131 1.487 19.7434 1.1547 19.7434 0.744844C19.7434 0.334991 19.4089 0.00268555 18.999 0.00268555C18.5891 0.00268555 18.2568 0.334917 18.2568 0.744844C18.2568 1.15477 18.5891 1.487 18.999 1.487Z" fill="#333333"/>
</g>
<defs>
<clipPath id="clip0">
<rect width="38" height="38" fill="white"/>
</clipPath>
</defs>
</svg>
