<svg width="24" height="24" viewBox="0 0 24 24" fill="none" xmlns="http://www.w3.org/2000/svg">
<path d="M5.00293 22.0002H19.0029C20.1059 22.0002 21.0029 21.1032 21.0029 20.0002V11.0002C21.0031 10.8689 20.9772 10.7388 20.927 10.6175C20.8767 10.4961 20.8029 10.3859 20.7099 10.2932L12.7099 2.2932C12.6171 2.20026 12.5069 2.12652 12.3856 2.07621C12.2643 2.0259 12.1343 2 12.0029 2C11.8716 2 11.7416 2.0259 11.6202 2.07621C11.4989 2.12652 11.3887 2.20026 11.2959 2.2932L3.29593 10.2932C3.20293 10.3859 3.12917 10.4961 3.07889 10.6175C3.02861 10.7388 3.00279 10.8689 3.00293 11.0002V20.0002C3.00293 21.1032 3.89993 22.0002 5.00293 22.0002ZM10.0029 20.0002V15.0002H14.0029V20.0002H10.0029ZM5.00293 11.4142L12.0029 4.4142L19.0029 11.4142L19.0039 20.0002H16.0029V15.0002C16.0029 13.8972 15.1059 13.0002 14.0029 13.0002H10.0029C8.89993 13.0002 8.00293 13.8972 8.00293 15.0002V20.0002H5.00293V11.4142Z" fill="#FF7643"/>
</svg>
