<svg width="38" height="38" viewBox="0 0 38 38" fill="none" xmlns="http://www.w3.org/2000/svg">
<g clip-path="url(#clip0)">
<path d="M10.2528 5.36401H5.7627V8.44172L10.2528 11.5701V5.36401Z" fill="#FFEBE2"/>
<path d="M5.7627 31.2301L10.2528 34.3585V28.6614L5.7627 25.533V31.2301Z" fill="#FFEBE2"/>
<path d="M5.7627 19.8361L10.2528 22.9645V17.2673L5.7627 14.1389V19.8361Z" fill="#FFEBE2"/>
<path d="M31.6168 5.36395C32.4769 5.36395 33.1741 4.66674 33.1741 3.80677C33.1741 2.9468 32.4769 2.24951 31.6168 2.24951H10.2529H5.76278H4.5597C3.69965 2.24951 3.00244 2.94672 3.00244 3.80677C3.00244 4.66682 3.69965 5.36395 4.5597 5.36395H5.76278H10.2529H31.6168Z" fill="#FF7643"/>
<path d="M27.2305 8.20581C26.4074 8.20581 25.7198 8.83288 25.6441 9.65256L25.5133 11.0698C25.4815 11.4144 25.7526 11.7118 26.0986 11.7118H28.3299C28.6706 11.7118 28.9399 11.4231 28.9164 11.0833L28.8199 9.689C28.762 8.85374 28.0677 8.20581 27.2305 8.20581Z" fill="#FFF7BA"/>
<path d="M18.0879 31.9352C18.0879 32.8694 18.8452 33.6267 19.7794 33.6267H33.3058C34.24 33.6267 34.9973 32.8694 34.9973 31.9352V23.4431H18.0879V31.9352ZM24.1861 25.4352C25.139 25.4352 25.9887 25.8762 26.5426 26.5651C27.0965 25.8762 27.9463 25.4352 28.899 25.4352C30.568 25.4352 31.921 26.7882 31.921 28.4572C31.921 30.1262 30.5681 31.4791 28.899 31.4791C27.9462 31.4791 27.0965 31.0382 26.5426 30.3492C25.9887 31.0382 25.1389 31.4791 24.1861 31.4791C22.5172 31.4791 21.1642 30.1262 21.1642 28.4572C21.1642 26.7882 22.5171 25.4352 24.1861 25.4352Z" fill="#FFEBE2"/>
<path d="M33.3058 19.3572H19.7794C18.8452 19.3572 18.0879 20.1145 18.0879 21.0487V23.443H34.9973V21.0487C34.9973 20.1145 34.24 19.3572 33.3058 19.3572Z" fill="#FF7643"/>
<path d="M5.7627 8.44165V14.1388L10.2528 17.2671V11.57L5.7627 8.44165Z" fill="#FF8C61"/>
<path d="M5.7627 37.2577H10.2528V34.3586L5.7627 31.2302V37.2577Z" fill="#FF8C61"/>
<path d="M5.7627 19.8359V25.533L10.2528 28.6614V22.9643L5.7627 19.8359Z" fill="#FF8C61"/>
<path d="M24.1865 31.479C25.1393 31.479 25.9891 31.0381 26.543 30.3491C26.1266 29.8312 25.8774 29.1732 25.8774 28.457C25.8774 27.7408 26.1266 27.0829 26.543 26.565C25.9891 25.876 25.1393 25.4351 24.1865 25.4351C22.5176 25.4351 21.1646 26.788 21.1646 28.457C21.1646 30.1261 22.5175 31.479 24.1865 31.479Z" fill="white"/>
<path d="M26.543 30.3491C27.0969 31.0381 27.9467 31.479 28.8994 31.479C30.5684 31.479 31.9214 30.1261 31.9214 28.457C31.9214 26.788 30.5684 25.4351 28.8994 25.4351C27.9466 25.4351 27.0969 25.876 26.543 26.565C26.1266 27.0829 25.8774 27.7408 25.8774 28.457C25.8774 29.1732 26.1266 29.8312 26.543 30.3491Z" fill="white"/>
<path d="M33.3061 18.615H29.3661C29.7323 18.2594 30.0118 17.8147 30.1679 17.3158L30.2007 17.3244C30.5974 17.4281 31.0029 17.1913 31.1069 16.7947C31.2109 16.3983 30.9739 15.9925 30.5773 15.8885L29.7548 15.6728C29.285 15.5493 28.8243 15.9045 28.8243 16.3907C28.8243 17.2827 28.0987 18.0083 27.2067 18.0083C26.3148 18.0083 25.5891 17.2827 25.5891 16.3907C25.5891 15.4987 26.3148 14.7732 27.2067 14.7732C27.6166 14.7732 27.9489 14.4408 27.9489 14.031V12.4539C28.1383 12.4275 28.7872 12.5832 29.3022 12.0313C29.5528 11.7627 29.6819 11.3984 29.6565 11.032L29.5601 9.63775C29.4929 8.66816 28.8315 7.86615 27.9488 7.57825V6.1062H31.6166C32.8845 6.1062 33.916 5.07471 33.916 3.80683C33.916 2.53895 32.8845 1.50746 31.6166 1.50746H27.9488V0.742188C27.9488 0.332352 27.6165 0 27.2067 0C26.7968 0 26.4645 0.332352 26.4645 0.742188V1.50746H4.5597C3.29182 1.50746 2.26025 2.53895 2.26025 3.80683C2.26025 5.07471 3.29175 6.1062 4.5597 6.1062H5.02052V36.5156H3.58996C3.18005 36.5156 2.84777 36.848 2.84777 37.2578C2.84777 37.6676 3.18005 38 3.58996 38H12.5252C12.9351 38 13.2674 37.6676 13.2674 37.2578C13.2674 36.848 12.9351 36.5156 12.5252 36.5156H10.995C10.995 34.5269 10.995 7.00024 10.995 6.1062H26.4647V7.5905C25.6181 7.88092 24.9919 8.64233 24.9049 9.58424L24.7741 11.0014C24.7398 11.3731 24.8643 11.7443 25.1158 12.02C25.63 12.5839 26.2849 12.428 26.4647 12.4539V13.3786C25.1115 13.712 24.1049 14.936 24.1049 16.3908C24.1049 17.2626 24.4669 18.051 25.0479 18.6151H19.7797C18.4378 18.6151 17.346 19.7069 17.346 21.0488V31.9353C17.346 33.2772 18.4378 34.369 19.7797 34.369H33.3061C34.648 34.369 35.7397 33.2772 35.7397 31.9353C35.7397 30.7159 35.7397 22.4995 35.7397 21.0488C35.7397 19.7068 34.648 18.615 33.3061 18.615ZM31.6167 2.99183C32.0661 2.99183 32.4317 3.35751 32.4317 3.80683C32.4317 4.25615 32.0661 4.62182 31.6167 4.62182H27.949V2.99183H31.6167ZM6.5049 21.2577L9.51061 23.3517V27.2398L6.5049 25.1457V21.2577ZM9.51061 21.5426L6.5049 19.4484V15.5605L9.51061 17.6546V21.5426ZM6.5049 26.9548L9.51061 29.049V32.937L6.5049 30.8429V26.9548ZM9.51061 15.8456L6.5049 13.7514V9.86345L9.51061 11.9575V15.8456ZM6.5049 36.5156V32.6519L9.51061 34.7461V36.5156H6.5049ZM9.51061 10.1484L6.5049 8.05422V6.1062H9.51061V10.1484ZM4.5597 4.62182C4.11023 4.62182 3.74463 4.25615 3.74463 3.80683C3.74463 3.35751 4.11023 2.99183 4.5597 2.99183H26.4647V4.6219C26.4572 4.62182 4.18898 4.58991 4.5597 4.62182ZM26.3831 9.72073C26.4237 9.28016 26.788 8.94804 27.2304 8.94804C27.6757 8.94804 28.0486 9.29597 28.0793 9.74025L28.1644 10.9695H26.2676L26.3831 9.72073ZM33.3061 32.8845H19.7797C19.2563 32.8845 18.8304 32.4587 18.8304 31.9352V24.1853H19.3711C19.7809 24.1853 20.1133 23.8529 20.1133 23.4431C20.1133 23.0333 19.7809 22.7009 19.3711 22.7009H18.8304V21.0487C18.8304 20.5253 19.2563 20.0994 19.7797 20.0994H33.3061C33.8296 20.0994 34.2554 20.5253 34.2554 21.0487V22.7009H25.3086C24.8988 22.7009 24.5664 23.0333 24.5664 23.4431C24.5664 23.8529 24.8988 24.1853 25.3086 24.1853H34.2554V31.9352C34.2554 32.4587 33.8296 32.8845 33.3061 32.8845Z" fill="#333333"/>
<path d="M31.8262 22.1426H32.4735C32.8833 22.1426 33.2157 21.8102 33.2157 21.4004C33.2157 20.9906 32.8833 20.6582 32.4735 20.6582H31.8262C31.4163 20.6582 31.084 20.9906 31.084 21.4004C31.084 21.8102 31.4163 22.1426 31.8262 22.1426Z" fill="white"/>
<path d="M26.5447 25.5238C25.8826 24.9896 25.0568 24.6931 24.1866 24.6931C22.111 24.6931 20.4224 26.3817 20.4224 28.4573C20.4224 30.5328 22.111 32.2214 24.1866 32.2214C25.0567 32.2214 25.8825 31.9249 26.5447 31.3908C28.9828 33.3519 32.6636 31.6263 32.6636 28.4573C32.6636 25.2917 28.9849 23.5609 26.5447 25.5238ZM21.9067 28.4573C21.9067 27.2002 22.9295 26.1775 24.1866 26.1775C24.7033 26.1775 25.1946 26.3501 25.5917 26.6621C24.9944 27.7585 24.9755 29.1212 25.5917 30.2524C25.1946 30.5644 24.7033 30.737 24.1866 30.737C22.9295 30.7371 21.9067 29.7143 21.9067 28.4573ZM28.8995 30.7371C27.5949 30.7371 26.5283 29.6295 26.6268 28.2858C26.7154 27.1014 27.7066 26.1776 28.8995 26.1776C30.1566 26.1776 31.1793 27.2002 31.1793 28.4573C31.1793 29.7145 30.1566 30.7371 28.8995 30.7371Z" fill="#333333"/>
<path d="M22.3418 24.1853C22.7516 24.1853 23.084 23.853 23.084 23.4431C23.084 23.0333 22.7516 22.7009 22.3418 22.7009H22.3399C21.93 22.7009 21.5986 23.0333 21.5986 23.4431C21.5986 23.853 21.9319 24.1853 22.3418 24.1853Z" fill="#333333"/>
</g>
<defs>
<clipPath id="clip0">
<rect width="38" height="38" fill="white"/>
</clipPath>
</defs>
</svg>
