<svg width="24" height="24" viewBox="0 0 24 24" fill="none" xmlns="http://www.w3.org/2000/svg">
<path fill-rule="evenodd" clip-rule="evenodd" d="M6 5C5.44772 5 5 5.44772 5 6V8C5 8.55228 5.44772 9 6 9H8C8.55228 9 9 8.55228 9 8V6C9 5.44772 8.55228 5 8 5H6ZM6 10C5.44772 10 5 10.4477 5 11V13C5 13.5523 5.44772 14 6 14H8C8.55228 14 9 13.5523 9 13V11C9 10.4477 8.55228 10 8 10H6ZM5 16C5 15.4477 5.44772 15 6 15H8C8.55228 15 9 15.4477 9 16V18C9 18.5523 8.55228 19 8 19H6C5.44772 19 5 18.5523 5 18V16ZM11 6C10.4477 6 10 6.44772 10 7C10 7.55228 10.4477 8 11 8H18C18.5523 8 19 7.55228 19 7C19 6.44772 18.5523 6 18 6H11ZM10 12C10 11.4477 10.4477 11 11 11H18C18.5523 11 19 11.4477 19 12C19 12.5523 18.5523 13 18 13H11C10.4477 13 10 12.5523 10 12ZM11 16C10.4477 16 10 16.4477 10 17C10 17.5523 10.4477 18 11 18H18C18.5523 18 19 17.5523 19 17C19 16.4477 18.5523 16 18 16H11Z" fill="#12121D" fill-opacity="0.3"/>
</svg>
