<svg width="14" height="19" viewBox="0 0 14 19" fill="none" xmlns="http://www.w3.org/2000/svg">
<path d="M14 6.91747C14 3.10133 10.8617 0 7 0C3.13833 0 0 3.10133 0 6.91747C0 10.9411 4.22333 16.3598 6.10167 18.5849C6.56833 19.1383 7.42 19.1383 7.88667 18.5849C9.77667 16.3598 14 10.9411 14 6.91747ZM4.66667 6.91747C4.66667 5.64927 5.71667 4.61165 7 4.61165C8.28333 4.61165 9.33333 5.64927 9.33333 6.91747C9.33333 7.52902 9.0875 8.11551 8.64991 8.54794C8.21233 8.98036 7.61884 9.2233 7 9.2233C6.38116 9.2233 5.78767 8.98036 5.35008 8.54794C4.9125 8.11551 4.66667 7.52902 4.66667 6.91747Z" fill="#EB5757"/>
</svg>
