<svg width="38" height="38" viewBox="0 0 38 38" fill="none" xmlns="http://www.w3.org/2000/svg">
<g clip-path="url(#clip0)">
<path d="M1.74268 21.251V3.99358L10.9367 0.742188L14.9333 4.21609L11.6483 5.33739L10.3165 3.99358L4.74403 6.0145V11.6635L1.74268 21.251Z" fill="#FFEBE2"/>
<path d="M19.0001 5.24414L20.8554 7.15811L23.143 5.78958L24.4398 8.1185L27.0035 7.3887L27.6534 9.97391L30.3187 9.93249L30.2772 12.5978L32.8625 13.2476L32.1327 15.8114L34.4616 17.1082L33.0931 19.3957L35.007 21.2511L33.0931 23.1065L34.4616 25.394L32.1327 26.6908L32.8625 29.2546L30.2772 29.9044L30.3187 32.5697L27.6534 32.5283L27.0035 35.1135L24.4398 34.3836L23.143 36.7126L20.8554 35.3441L19.0001 37.2581L17.1447 35.3441L14.8572 36.7126L13.5604 34.3836L10.9966 35.1135L10.3468 32.5283L7.68144 32.5697L7.72286 29.9044L5.13765 29.2546L5.86752 26.6908L3.53853 25.394L4.90713 23.1065L2.99316 21.2511L4.90713 19.3957L3.53853 17.1082L5.86752 15.8114L5.13765 13.2476L7.72286 12.5978L7.68144 9.93249L10.3468 9.97391L10.9966 7.3887L13.5604 8.1185L14.8572 5.78958L17.1447 7.15811L19.0001 5.24414Z" fill="#FFEBE2"/>
<path d="M19.0003 32.9228C25.4464 32.9228 30.672 27.6972 30.672 21.2511C30.672 14.8049 25.4464 9.57935 19.0003 9.57935C12.5542 9.57935 7.32861 14.8049 7.32861 21.2511C7.32861 27.6972 12.5542 32.9228 19.0003 32.9228Z" fill="#FF8C61"/>
<path d="M19.0002 24.3357C20.7039 24.3357 22.0849 22.9546 22.0849 21.251C22.0849 19.5473 20.7039 18.1663 19.0002 18.1663C17.2966 18.1663 15.9155 19.5473 15.9155 21.251C15.9155 22.9546 17.2966 24.3357 19.0002 24.3357Z" fill="#FFEBE2"/>
<path d="M27.1385 21.2509C27.1385 16.7562 23.4948 13.1125 19.0001 13.1125C14.5054 13.1125 10.8618 16.7562 10.8618 21.2509H1.74268C1.74268 11.7199 9.46912 3.99341 19.0002 3.99341C28.5313 3.99341 36.2576 11.7199 36.2576 21.2509H27.1385Z" fill="#FF7643"/>
<path d="M18.9999 28.6497L18.9668 28.6497C18.557 28.6497 18.2246 28.982 18.2246 29.3919C18.2246 29.8017 18.557 30.134 18.9668 30.134L18.9999 30.1341C19.4098 30.1341 19.7421 29.8018 19.7421 29.3919C19.7421 28.9821 19.4098 28.6497 18.9999 28.6497Z" fill="#333333"/>
<path d="M19.0002 17.4241C16.8901 17.4241 15.1733 19.1408 15.1733 21.251C15.1733 23.3611 16.8901 25.0778 19.0002 25.0778C21.1104 25.0778 22.8271 23.361 22.8271 21.2509C22.8271 19.1408 21.1103 17.4241 19.0002 17.4241ZM19.0002 23.5934C17.7086 23.5934 16.6577 22.5426 16.6577 21.2509C16.6577 19.9592 17.7085 18.9084 19.0002 18.9084C20.2919 18.9084 21.3427 19.9592 21.3427 21.2509C21.3427 22.5426 20.2919 23.5934 19.0002 23.5934Z" fill="#333333"/>
<path d="M31.7279 8.52331C28.3281 5.1237 23.808 3.25137 19.0002 3.25137C17.7677 3.25137 16.5543 3.37525 15.3737 3.61549L11.4237 0.18204C11.2219 0.00666015 10.9413 -0.0466292 10.6893 0.0424338L1.49523 3.2939C1.19873 3.39877 1.00049 3.6791 1.00049 3.99364V21.2512C1.00049 21.661 1.33284 21.9933 1.74268 21.9933H6.60901C6.99428 28.4941 12.4043 33.6651 19.0001 33.6651C25.5959 33.6651 31.006 28.4941 31.3912 21.9933H36.2576C36.6674 21.9933 36.9998 21.661 36.9998 21.2512C36.9998 16.4431 35.1276 11.9231 31.7279 8.52331ZM2.48487 4.51837L10.7763 1.58612L13.6271 4.06407C13.08 4.23441 12.5419 4.43064 12.0147 4.65263L10.8437 3.47114C10.6401 3.26562 10.3356 3.19719 10.0635 3.29583L4.49102 5.31667C4.19741 5.42325 4.00184 5.70209 4.00184 6.01441V11.2896C3.41217 12.1735 2.90569 13.1042 2.48495 14.0716L2.48487 4.51837ZM10.5927 5.32662C9.02121 6.15884 7.56562 7.23026 6.2725 8.52339C6.00019 8.7957 5.73879 9.07602 5.48622 9.36228V6.53483L10.1234 4.85317L10.5927 5.32662ZM19.0002 32.1806C13.2231 32.1806 8.47926 27.675 8.09636 21.9933H10.1493C10.438 25.4177 12.7049 28.4202 15.9733 29.6047C16.0568 29.635 16.1422 29.6494 16.2261 29.6494C16.5297 29.6494 16.8146 29.4618 16.9239 29.1599C17.0636 28.7745 16.8644 28.3489 16.479 28.2092C13.5727 27.1559 11.617 24.3767 11.6023 21.2862C11.6028 21.2745 11.604 21.263 11.604 21.2511C11.604 17.1728 14.9219 13.8549 19.0001 13.8549C23.0783 13.8549 26.3962 17.1728 26.3962 21.2511C26.3962 21.6609 26.7286 21.9933 27.1384 21.9933H29.904C29.5211 27.6749 24.7773 32.1806 19.0002 32.1806ZM27.8499 20.5089C27.4717 15.9579 23.6471 12.3705 19.0002 12.3705C14.3533 12.3705 10.5286 15.9579 10.1505 20.5088H2.50135C2.64363 17.3028 3.70526 14.3324 5.42699 11.8532C5.44436 11.8404 5.45802 11.8212 5.46796 11.7945C8.45714 7.52981 13.4082 4.73576 19.0002 4.73576C27.8583 4.73576 35.11 11.7449 35.4991 20.5089H27.8499Z" fill="#333333"/>
<path d="M33.7298 22.7255C33.5195 22.3738 33.0637 22.259 32.7119 22.4696C32.3602 22.6801 32.2456 23.1358 32.4561 23.4876L33.4315 25.1181L31.7715 26.0424C31.4706 26.2101 31.3245 26.5628 31.4188 26.8941L31.939 28.7215L30.0963 29.1847C29.7622 29.2687 29.5297 29.5716 29.5351 29.9161L29.5646 31.8158L27.6648 31.7864C27.3237 31.7823 27.0173 32.0134 26.9334 32.3476L26.4703 34.1903L24.6429 33.67C24.3112 33.5757 23.9588 33.7218 23.7911 34.0227L22.8668 35.6827L21.2363 34.7072C20.9407 34.53 20.5621 34.5801 20.3225 34.8275L19 36.1917L17.6775 34.8275C17.4377 34.5801 17.0592 34.5303 16.7636 34.7072L15.1332 35.6827L14.2088 34.0226C14.0412 33.7216 13.6888 33.5754 13.3571 33.6698L11.5297 34.1901L11.0665 32.3475C10.9835 32.0171 10.6865 31.7862 10.3469 31.7862C10.343 31.7862 10.3391 31.7862 10.3353 31.7862L8.43539 31.8157L8.46493 29.9159C8.47027 29.5715 8.23782 29.2686 7.90368 29.1845L6.06104 28.7213L6.58125 26.894C6.67558 26.5626 6.52944 26.2099 6.22848 26.0423L4.5685 25.1179L5.54396 23.4874C5.75444 23.1357 5.63985 22.6799 5.28812 22.4695C4.93633 22.2589 4.48062 22.3736 4.27021 22.7253L2.90168 25.0128C2.79852 25.1852 2.76972 25.3919 2.82167 25.586C2.87363 25.78 3.00203 25.9446 3.17748 26.0423L4.99266 27.053L4.42384 29.0512C4.36892 29.2444 4.39445 29.4516 4.49494 29.6255C4.59536 29.7995 4.76198 29.9253 4.95681 29.9742L6.97164 30.4806L6.93928 32.558C6.93616 32.7587 7.01461 32.9523 7.15659 33.0943C7.29857 33.2363 7.49132 33.3143 7.69297 33.3117L9.77037 33.2794L10.2768 35.2942C10.3257 35.489 10.4515 35.6556 10.6254 35.7561C10.7995 35.8566 11.0069 35.8822 11.1998 35.8272L13.198 35.2583L14.2087 37.0735C14.3063 37.249 14.471 37.3774 14.6651 37.4293C14.8588 37.4813 15.0658 37.4525 15.2382 37.3493L17.021 36.2827L18.4671 37.7745C18.6068 37.9187 18.7991 38.0001 19 38.0001C19.2008 38.0001 19.3931 37.9187 19.5329 37.7745L20.979 36.2827L22.7618 37.3493C22.9341 37.4526 23.141 37.4814 23.3349 37.4293C23.5289 37.3774 23.6936 37.249 23.7913 37.0735L24.802 35.2583L26.8002 35.8272C26.9935 35.8821 27.2006 35.8566 27.3745 35.7561C27.5485 35.6556 27.6743 35.489 27.7232 35.2942L28.2296 33.2794L30.307 33.3117C30.5052 33.3143 30.7013 33.2363 30.8433 33.0943C30.9853 32.9523 31.0638 32.7588 31.0607 32.558L31.0283 30.4806L33.0431 29.9742C33.238 29.9253 33.4046 29.7995 33.505 29.6255C33.6055 29.4515 33.631 29.2444 33.5761 29.0512L33.0073 27.053L34.8225 26.0423C34.9979 25.9446 35.1263 25.78 35.1783 25.586C35.2302 25.392 35.2014 25.1852 35.0983 25.0128L33.7298 22.7255Z" fill="#333333"/>
<path d="M5.74463 17.4243C5.54869 17.4243 5.35795 17.5037 5.21998 17.6419C5.08193 17.7798 5.00244 17.9706 5.00244 18.1665C5.00244 18.3617 5.08186 18.5532 5.21998 18.6912C5.35795 18.8293 5.54877 18.9087 5.74463 18.9087C5.93983 18.9087 6.13132 18.8294 6.26936 18.6912C6.40741 18.5531 6.48682 18.3617 6.48682 18.1665C6.48682 17.9706 6.40748 17.7798 6.26936 17.6419C6.13132 17.5037 5.93983 17.4243 5.74463 17.4243Z" fill="white"/>
<path d="M22.7887 7.9246C22.3946 7.81276 21.9841 8.04165 21.8721 8.43605C21.7602 8.83038 21.9892 9.24073 22.3836 9.35266C25.4424 10.2206 28.1138 12.3039 29.7129 15.0682C29.8505 15.306 30.0997 15.4389 30.3561 15.4389C30.4821 15.4389 30.61 15.4067 30.7269 15.339C31.0818 15.1337 31.203 14.6797 30.9978 14.325C29.181 11.1842 26.2656 8.9112 22.7887 7.9246Z" fill="white"/>
<path d="M18.9075 7.3999C18.9037 7.3999 18.9 7.3999 18.8962 7.39998L18.8701 7.40005C18.4603 7.40005 18.1279 7.7324 18.1279 8.14224C18.1279 8.55208 18.4603 8.88444 18.8701 8.88444L18.9182 8.88421C19.328 8.87813 19.6554 8.54095 19.6493 8.13111C19.6433 7.72498 19.3122 7.3999 18.9075 7.3999Z" fill="white"/>
</g>
<defs>
<clipPath id="clip0">
<rect width="38" height="38" fill="white"/>
</clipPath>
</defs>
</svg>
