<svg width="100" height="100" viewBox="0 0 100 100" fill="none" xmlns="http://www.w3.org/2000/svg">
<path d="M100 50C100 77.6143 77.6143 100 50 100C22.3857 100 0 77.6143 0 50C0 22.3857 22.3857 0 50 0C77.6143 0 100 22.3857 100 50Z" fill="#FFF1EC"/>
<path d="M34.375 65.0391V77.1484C34.375 77.6877 33.9377 78.125 33.3984 78.125H11.9141C11.3748 78.125 10.9375 77.6877 10.9375 77.1484V65.0391C10.9375 64.4998 11.3748 64.0625 11.9141 64.0625H33.3984C33.9377 64.0625 34.375 64.4998 34.375 65.0391ZM33.3984 46.875H11.9141C11.3748 46.875 10.9375 47.3123 10.9375 47.8516V59.9609C10.9375 60.5002 11.3748 60.9375 11.9141 60.9375H33.3984C33.9377 60.9375 34.375 60.5002 34.375 59.9609V47.8516C34.375 47.3123 33.9377 46.875 33.3984 46.875ZM59.9609 64.0625H38.4766C37.9373 64.0625 37.5 64.4998 37.5 65.0391V77.1484C37.5 77.6877 37.9373 78.125 38.4766 78.125H59.9609C60.5002 78.125 60.9375 77.6877 60.9375 77.1484V65.0391C60.9375 64.4998 60.5002 64.0625 59.9609 64.0625ZM59.9609 46.875H38.4766C37.9373 46.875 37.5 47.3123 37.5 47.8516V59.9609C37.5 60.5002 37.9373 60.9375 38.4766 60.9375H59.9609C60.5002 60.9375 60.9375 60.5002 60.9375 59.9609V47.8516C60.9375 47.3123 60.5002 46.875 59.9609 46.875ZM88.0859 64.0625H66.6016C66.0623 64.0625 65.625 64.4998 65.625 65.0391V77.1484C65.625 77.6877 66.0623 78.125 66.6016 78.125H88.0859C88.6252 78.125 89.0625 77.6877 89.0625 77.1484V65.0391C89.0625 64.4998 88.6252 64.0625 88.0859 64.0625ZM88.0859 46.875H66.6016C66.0623 46.875 65.625 47.3123 65.625 47.8516V59.9609C65.625 60.5002 66.0623 60.9375 66.6016 60.9375H88.0859C88.6252 60.9375 89.0625 60.5002 89.0625 59.9609V47.8516C89.0625 47.3123 88.6252 46.875 88.0859 46.875Z" fill="#FFEBE2"/>
<path d="M88.391 82.0312C79.2191 93.0121 65.4266 100 50.0002 100C34.5738 100 20.7813 93.0121 11.6094 82.0312H88.391Z" fill="#FF7643"/>
<path d="M95.1172 15.1367H43.9436C43.9414 15.1367 43.9391 15.1367 43.9369 15.1367H25.9389L24.3557 8.80371C24.1195 7.85898 23.2314 7.25039 22.2916 7.33359C22.2316 7.32793 22.1709 7.32422 22.1094 7.32422H6.79687C5.73984 7.32422 4.88281 8.19863 4.88281 9.27734C4.88281 10.3561 5.73965 11.2305 6.79687 11.2305H20.9361L22.5053 17.5074L30.1895 58.041L26.4676 69.2066C26.1264 70.2299 26.6795 71.3359 27.7029 71.6772C27.9078 71.7455 28.116 71.7779 28.3209 71.7779C29.1387 71.7779 29.9008 71.2604 30.1734 70.4418L33.6234 60.0918L95.3643 52.2305C96.3397 52.1063 97.0707 51.2764 97.0707 50.293V38.5984C97.0707 38.5982 97.0707 38.598 97.0707 38.598L97.0703 17.0898C97.0703 16.0111 96.1959 15.1367 95.1172 15.1367ZM26.7721 19.043H42.1869L43.1688 28.3711L28.6215 28.7988L26.7721 19.043ZM29.3584 32.6852L43.5791 32.267L44.518 41.1855L31.1982 42.3891L29.3584 32.6852ZM33.8031 56.1313L31.9289 46.2451L44.9268 45.0705L45.9092 54.4037C45.9156 54.4654 45.9252 54.5264 45.9371 54.5861L33.8031 56.1313ZM46.1146 19.043H61.5258C61.5258 19.0811 61.5244 19.1191 61.5268 19.1576L62.0361 27.816L47.0846 28.2557L46.1146 19.043ZM47.4945 32.1518L62.2654 31.7174L62.7256 39.5402L48.4084 40.834L47.4945 32.1518ZM49.7992 54.0943C49.7975 54.0611 49.7973 54.0281 49.7938 53.9947L48.8174 44.7189L62.9551 43.4414L63.4793 52.3525L49.7992 54.0943ZM65.433 19.043H79.1016V27.3143L65.9424 27.7012L65.433 19.043ZM66.1719 31.6023L79.1016 31.2221V38.0602L66.6182 39.1883L66.1719 31.6023ZM67.3633 51.858L66.8475 43.0898L79.1016 41.9824V50.293C79.1016 50.3166 79.1043 50.3395 79.1051 50.3629L67.3633 51.858ZM93.1641 48.5727L83.0078 49.8658V41.6295L93.1641 40.7117V48.5727ZM93.1641 36.7897L83.0078 37.7074V31.1074L93.1641 30.8088V36.7897ZM93.1641 26.9006L83.0078 27.1992V19.043H93.1641V26.9006Z" fill="#333333"/>
<path d="M86.9141 67.3828V71.2891C86.9141 71.8283 86.4768 72.2656 85.9375 72.2656H27.3438C26.8045 72.2656 26.3672 71.8283 26.3672 71.2891V67.3828C26.3672 66.8436 26.8045 66.4062 27.3438 66.4062H85.9375C86.4768 66.4062 86.9141 66.8436 86.9141 67.3828ZM15.3809 5.85938H7.08008C5.05742 5.85938 3.41797 7.49902 3.41797 9.52148C3.41797 11.5439 5.05762 13.1836 7.08008 13.1836H15.3809C17.4033 13.1836 19.043 11.5439 19.043 9.52148C19.043 7.49902 17.4033 5.85938 15.3809 5.85938Z" fill="#FF7643"/>
<path d="M78.8886 67.604V80.729C78.8886 81.2467 78.4533 81.6665 77.9164 81.6665H74.0275C73.4906 81.6665 73.0553 81.2467 73.0553 80.729V67.604C73.0553 67.0863 73.4906 66.6665 74.0275 66.6665H77.9164C78.4533 66.6665 78.8886 67.0863 78.8886 67.604ZM40.972 66.6665H37.0831C36.5462 66.6665 36.1108 67.0863 36.1108 67.604V80.729C36.1108 81.2467 36.5462 81.6665 37.0831 81.6665H40.972C41.5088 81.6665 41.9442 81.2467 41.9442 80.729V67.604C41.9442 67.0863 41.5088 66.6665 40.972 66.6665Z" fill="#FF7643"/>
<path d="M83.0078 82.5195C83.0078 86.2949 79.9473 89.3555 76.1719 89.3555C72.3965 89.3555 69.3359 86.2949 69.3359 82.5195C69.3359 78.7441 72.3965 75.6836 76.1719 75.6836C79.9473 75.6836 83.0078 78.7441 83.0078 82.5195ZM39.0625 75.6836C35.2871 75.6836 32.2266 78.7441 32.2266 82.5195C32.2266 86.2949 35.2871 89.3555 39.0625 89.3555C42.8379 89.3555 45.8984 86.2949 45.8984 82.5195C45.8984 78.7441 42.8379 75.6836 39.0625 75.6836Z" fill="#333333"/>
<path d="M80.0781 82.5195C80.0781 84.677 78.3293 86.4258 76.1719 86.4258C74.0145 86.4258 72.2656 84.677 72.2656 82.5195C72.2656 80.3621 74.0145 78.6133 76.1719 78.6133C78.3291 78.6133 80.0781 80.3621 80.0781 82.5195ZM39.0625 78.6133C36.9051 78.6133 35.1562 80.3621 35.1562 82.5195C35.1562 84.677 36.9051 86.4258 39.0625 86.4258C41.2199 86.4258 42.9688 84.677 42.9688 82.5195C42.9688 80.3621 41.2197 78.6133 39.0625 78.6133Z" fill="white"/>
</svg>
