<svg width="32" height="32" viewBox="0 0 32 32" fill="none" xmlns="http://www.w3.org/2000/svg">
<path fill-rule="evenodd" clip-rule="evenodd" d="M6.3998 6.39995C6.3998 5.55126 6.73695 4.73733 7.33706 4.13721C7.93718 3.53709 8.75111 3.19995 9.5998 3.19995H22.3998C23.2485 3.19995 24.0624 3.53709 24.6625 4.13721C25.2627 4.73733 25.5998 5.55126 25.5998 6.39995V25.5999C26.0242 25.5999 26.4311 25.7685 26.7312 26.0686C27.0312 26.3686 27.1998 26.7756 27.1998 27.1999C27.1998 27.6243 27.0312 28.0313 26.7312 28.3313C26.4311 28.6314 26.0242 28.7999 25.5998 28.7999H20.7998C20.3755 28.7999 19.9685 28.6314 19.6684 28.3313C19.3684 28.0313 19.1998 27.6243 19.1998 27.1999V24C19.1998 23.5756 19.0312 23.1686 18.7312 22.8686C18.4311 22.5685 18.0242 22.4 17.5998 22.4H14.3998C13.9755 22.4 13.5685 22.5685 13.2684 22.8686C12.9684 23.1686 12.7998 23.5756 12.7998 24V27.1999C12.7998 27.6243 12.6312 28.0313 12.3312 28.3313C12.0311 28.6314 11.6242 28.7999 11.1998 28.7999H6.3998C5.97546 28.7999 5.56849 28.6314 5.26843 28.3313C4.96838 28.0313 4.7998 27.6243 4.7998 27.1999C4.7998 26.7756 4.96838 26.3686 5.26843 26.0686C5.56849 25.7685 5.97546 25.5999 6.3998 25.5999V6.39995ZM11.1998 7.99995H14.3998V11.2H11.1998V7.99995ZM14.3998 14.4H11.1998V17.6H14.3998V14.4ZM17.5998 7.99995H20.7998V11.2H17.5998V7.99995ZM20.7998 14.4H17.5998V17.6H20.7998V14.4Z" fill="#FF7643"/>
</svg>
