<svg width="32" height="32" viewBox="0 0 32 32" fill="none" xmlns="http://www.w3.org/2000/svg">
<path d="M19.9998 4C20.3535 4 20.6926 4.14048 20.9426 4.39052C21.1927 4.64057 21.3332 4.97971 21.3332 5.33333V8H27.9998C28.3535 8 28.6926 8.14048 28.9426 8.39052C29.1927 8.64057 29.3332 8.97971 29.3332 9.33333V26.6667C29.3332 27.0203 29.1927 27.3594 28.9426 27.6095C28.6926 27.8595 28.3535 28 27.9998 28H3.99984C3.64622 28 3.30708 27.8595 3.05703 27.6095C2.80698 27.3594 2.6665 27.0203 2.6665 26.6667V9.33333C2.6665 8.97971 2.80698 8.64057 3.05703 8.39052C3.30708 8.14048 3.64622 8 3.99984 8H10.6665V5.33333C10.6665 4.97971 10.807 4.64057 11.057 4.39052C11.3071 4.14048 11.6462 4 11.9998 4H19.9998ZM10.6665 10.6667H7.99984V25.3333H10.6665V10.6667ZM23.9998 10.6667H21.3332V25.3333H23.9998V10.6667ZM18.6665 6.66667H13.3332V8H18.6665V6.66667Z" fill="#FF7643"/>
</svg>
