<svg width="38" height="38" viewBox="0 0 38 38" fill="none" xmlns="http://www.w3.org/2000/svg">
<g clip-path="url(#clip0)">
<path d="M30.8008 16.3562C30.8008 19.944 27.8929 22.8532 24.3066 22.8532C20.7204 22.8532 17.8125 19.944 17.8125 16.3562C17.8125 15.2283 16.8989 14.3143 15.7715 14.3143C14.6441 14.3143 13.7305 15.2283 13.7305 16.3562C13.7305 19.944 10.8226 22.8532 7.23633 22.8532C3.65008 22.8532 0.742188 19.944 0.742188 16.3562C0.742188 12.781 3.48828 10.379 7.19922 9.86002C7.19922 9.86002 10.8359 9.48804 15.7344 9.48804C20.1133 9.48804 24.3438 9.86002 24.3438 9.86002C27.9062 10.1562 30.8008 12.781 30.8008 16.3562Z" fill="#FF7643"/>
<path d="M15.7715 37.2577C18.3334 37.2577 20.4102 35.18 20.4102 32.617C20.4102 30.054 18.3334 27.9763 15.7715 27.9763C13.2096 27.9763 11.1328 30.054 11.1328 32.617C11.1328 35.18 13.2096 37.2577 15.7715 37.2577Z" fill="#FFEBE2"/>
<path d="M35.725 0.741699C35.725 24.7219 35.5647 32.9273 20.1969 34.0114C20.335 33.5711 20.4099 33.1026 20.4099 32.6169C20.4099 32.0571 20.3105 31.5203 20.1294 31.0235V31.0228C32.9774 29.9469 32.656 22.6755 32.656 0.741699H35.725Z" fill="#FF7643"/>
<path d="M26.4855 22.556C26.4855 24.3604 24.5595 25.8231 22.1838 25.8231C19.808 25.8231 19.1579 25.3167 17.8828 24.0411C16.3999 22.5583 15.1723 22.588 13.7199 24.0411C12.4448 25.3167 11.7939 25.8231 9.41891 25.8231C7.04316 25.8231 5.11719 24.3603 5.11719 22.556L5.13871 22.5063C5.79629 22.7313 6.50211 22.8531 7.23613 22.8531C10.8224 22.8531 13.7303 19.9439 13.7303 16.3561C13.7303 15.2282 14.6439 14.3142 15.7713 14.3142C16.8987 14.3142 17.8123 15.2282 17.8123 16.3561C17.8123 19.9439 20.7202 22.8531 24.3064 22.8531C25.0702 22.8531 25.8027 22.7209 26.4833 22.4789L26.4855 22.556Z" fill="#FFEBE2"/>
<path d="M37.2578 16.3192V16.3199C37.2578 17.1397 36.5935 17.8042 35.7742 17.8042H30.639C30.7451 17.3387 30.8008 16.8538 30.8008 16.3564C30.8008 15.827 30.7369 15.3183 30.6167 14.835H35.7742C36.5935 14.8349 37.2578 15.4994 37.2578 16.3192Z" fill="#FFEBE2"/>
<path d="M33.9298 25.4387C33.7041 25.3504 33.4459 25.3794 33.2462 25.5137C33.12 25.5983 33.0243 25.7178 32.9686 25.8595C32.8959 26.0444 32.9003 26.2462 32.9798 26.4273C33.0592 26.6092 33.2046 26.7487 33.3895 26.8214C33.4763 26.8548 33.5668 26.8719 33.6596 26.8719C33.8073 26.8719 33.9506 26.8288 34.0738 26.7457C34.1999 26.6611 34.2957 26.5416 34.3513 26.3999C34.4998 26.0191 34.3113 25.5872 33.9298 25.4387Z" fill="#333333"/>
<path d="M15.7713 33.3595C16.1814 33.3595 16.5138 33.0271 16.5138 32.617C16.5138 32.2069 16.1814 31.8745 15.7713 31.8745C15.3612 31.8745 15.0288 32.2069 15.0288 32.617C15.0288 33.0271 15.3612 33.3595 15.7713 33.3595Z" fill="#333333"/>
<path d="M36.2945 14.1551C36.3019 13.9859 36.3093 13.816 36.316 13.643C36.4652 9.8564 36.4659 5.42918 36.4674 0.742188C36.4674 0.54625 36.388 0.355508 36.2499 0.216719C36.1119 0.0786719 35.9204 0 35.7252 0H32.6562C32.4611 0 32.2696 0.0786719 32.1315 0.216719C31.9935 0.355508 31.9141 0.54625 31.9141 0.742188C31.9141 1.27285 31.9141 1.79535 31.9148 2.30969V3.77773C31.9148 7.62227 31.9037 11.1106 31.7827 14.0927H31.1694C30.819 13.0672 30.2289 12.1296 29.4264 11.347C28.1187 10.0716 26.3355 9.28068 24.4088 9.12045C24.3661 9.11673 20.0954 8.74564 15.7344 8.74564C10.8545 8.74564 7.16048 9.1177 7.12366 9.12148C7.11454 9.12245 7.10548 9.12349 7.09635 9.12482C5.06892 9.40834 3.32849 10.2049 2.06313 11.4283C0.713465 12.7333 0 14.4374 0 16.356C0 19.3446 1.81977 21.9159 4.40896 23.0196C4.5407 23.9508 5.06788 24.8037 5.92852 25.4573C6.86932 26.1718 8.10899 26.5653 9.41918 26.5653C11.9906 26.5653 12.8248 25.9866 14.245 24.5657C14.8368 23.9737 15.3435 23.6848 15.7943 23.6823H15.8001C16.2539 23.6823 16.7637 23.9715 17.3582 24.5657C18.7785 25.9866 19.6126 26.5653 22.1841 26.5653C23.4942 26.5653 24.7338 26.1718 25.6747 25.4573C26.544 24.797 27.0737 23.9336 27.1987 22.9913C29.0957 22.1606 30.5706 20.5392 31.2044 18.5459H31.4711C31.3034 20.0704 31.08 21.3677 30.795 22.4736C30.4551 23.7947 30.0239 24.8812 29.4761 25.7956C28.6426 27.1805 27.5591 28.1632 26.065 28.8868C24.6636 29.5641 22.8699 30.0058 20.5948 30.2341C19.7145 28.4583 17.8837 27.2341 15.7716 27.2341C12.8046 27.2341 10.3908 29.6488 10.3908 32.617C10.3906 35.5853 12.8044 38 15.7715 38C17.9949 38 19.9075 36.6439 20.7267 34.7151C22.0794 34.6044 23.283 34.4407 24.392 34.2166C25.6686 33.9583 26.7841 33.6273 27.8046 33.2043C28.8243 32.7835 29.7491 32.2587 30.5544 31.6449C31.3596 31.0312 32.0736 30.3068 32.6763 29.4911C32.7943 29.3323 32.8433 29.1364 32.8143 28.9404C32.7846 28.7445 32.6807 28.5715 32.5219 28.4535C32.3928 28.3578 32.2406 28.3073 32.0803 28.3073C31.8458 28.3073 31.6231 28.4194 31.4836 28.6079C30.4134 30.0478 29.0641 31.0727 27.2361 31.8335C25.607 32.5096 23.6075 32.9534 21.1219 33.1902C21.1222 33.1874 21.1223 33.1846 21.1226 33.1818C21.1309 33.1025 21.1368 33.0225 21.1416 32.9423C21.1424 32.9287 21.144 32.9153 21.1447 32.9018C21.1496 32.8083 21.1522 32.7144 21.1523 32.6197C21.1523 32.6189 21.1523 32.618 21.1523 32.6172V32.6171V32.6171C21.1523 32.6168 21.1523 32.6165 21.1523 32.6162C21.1523 32.5308 21.1499 32.4454 21.1458 32.36C21.1444 32.3294 21.1418 32.2991 21.1399 32.2687C21.1363 32.2138 21.1325 32.1591 21.1273 32.1044C21.124 32.069 21.1198 32.0338 21.1158 31.9984C21.1101 31.9494 21.104 31.9005 21.0971 31.8517C21.0916 31.8138 21.0857 31.7759 21.0795 31.7383C21.0761 31.7178 21.0737 31.6972 21.07 31.6768C22.4572 31.5224 23.6528 31.2946 24.7238 30.9791C25.8327 30.6533 26.7856 30.2407 27.6377 29.7189C28.3398 29.2892 28.9758 28.7733 29.528 28.1848C30.0735 27.6044 30.5544 26.9349 30.9575 26.195C31.9728 24.3328 32.6021 21.9452 32.9636 18.5459H34.5066C34.3507 20.1053 34.1437 21.5095 33.8698 22.7771C33.8282 22.9709 33.8646 23.1698 33.9722 23.336C34.0798 23.5023 34.2461 23.6173 34.4398 23.6589C34.4918 23.67 34.5444 23.6759 34.5964 23.6759C34.9437 23.6759 35.248 23.4288 35.3215 23.0889C35.605 21.7633 35.8284 20.2693 35.9977 18.5347C37.1206 18.4219 38.0001 17.4719 38.0001 16.3186C38 15.2699 37.2719 14.3889 36.2945 14.1551ZM15.7715 36.5156C13.6229 36.5156 11.875 34.7667 11.875 32.6171C11.875 30.4675 13.6229 28.7186 15.7715 28.7186C17.92 28.7186 19.668 30.4675 19.668 32.6171C19.668 34.7667 17.92 36.5156 15.7715 36.5156ZM33.3984 1.48363H34.983C34.983 2.01266 34.9828 2.53234 34.9821 3.04386H33.399C33.399 2.78142 33.3987 2.51705 33.3984 2.25031V1.48363H33.3984ZM33.3989 4.52831H34.9792C34.9685 8.15011 34.9305 11.3165 34.8102 14.0928H33.2679C33.3783 11.3248 33.3964 8.14974 33.3989 4.52831ZM22.184 25.0809C20.0725 25.0809 19.596 24.705 18.4078 23.5163C17.5207 22.6293 16.6677 22.1979 15.8004 22.1979C15.7957 22.1979 15.7909 22.1979 15.786 22.1979C14.9246 22.2026 14.0772 22.634 13.1951 23.5164C12.0071 24.705 11.5306 25.0809 9.4191 25.0809C7.93191 25.0809 6.65505 24.4304 6.12349 23.5097C6.48635 23.5659 6.85796 23.5953 7.23633 23.5953C11.2265 23.5953 14.4727 20.3477 14.4727 16.356C14.4727 15.6394 15.0553 15.0563 15.7715 15.0563C16.4876 15.0563 17.0703 15.6394 17.0703 16.356C17.0703 20.3477 20.3165 23.5953 24.3066 23.5953C24.7079 23.5953 25.1014 23.5619 25.4851 23.4988C24.9572 24.4252 23.677 25.0809 22.184 25.0809ZM24.3066 22.1109C21.135 22.1109 18.5547 19.5293 18.5547 16.356C18.5547 14.8209 17.3062 13.5719 15.7715 13.5719C14.2368 13.5719 12.9883 14.821 12.9883 16.356C12.9883 19.5293 10.4079 22.1109 7.23633 22.1109C4.06474 22.1109 1.48438 19.5293 1.48438 16.356C1.48438 13.3546 3.76185 11.0953 7.28784 10.5969C7.53135 10.5728 11.0751 10.2301 15.7344 10.2301C20.0282 10.2301 24.2368 10.5955 24.2822 10.5996C27.6293 10.8779 30.0586 13.2989 30.0586 16.3561C30.0586 19.5293 27.4782 22.1109 24.3066 22.1109ZM36.1312 16.9695C36.025 17.0282 35.9033 17.0616 35.7742 17.0616H31.5085C31.5311 16.8293 31.543 16.5941 31.543 16.356C31.543 16.0938 31.5281 15.834 31.4998 15.5772H35.7742C35.9389 15.5772 36.0911 15.6314 36.2143 15.7226C36.3969 15.8577 36.5156 16.0744 36.5156 16.3194C36.5156 16.5992 36.3605 16.8434 36.1312 16.9695Z" fill="#333333"/>
<path d="M8.05273 19.0676C7.64379 19.0676 7.31055 19.4009 7.31055 19.8098C7.31055 20.2196 7.64379 20.552 8.05273 20.552H8.05422C8.46242 20.5513 8.79492 20.2188 8.79492 19.8098C8.79492 19.4009 8.46168 19.0676 8.05273 19.0676Z" fill="white"/>
<path d="M4.74801 17.1936C4.57731 16.7217 4.49047 16.1538 4.49121 15.5037C4.49121 15.0947 4.15797 14.7615 3.74902 14.7615C3.33934 14.7615 3.00684 15.0947 3.00684 15.5037C3.00684 16.326 3.12336 17.0645 3.3527 17.6983C3.59242 18.3641 3.96055 18.9251 4.44594 19.3668C4.58324 19.4923 4.76063 19.5605 4.94617 19.5605C5.15399 19.5605 5.35438 19.4722 5.49465 19.3185C5.77 19.0157 5.74848 18.546 5.44641 18.2698C5.13766 17.9878 4.90907 17.6352 4.74801 17.1936Z" fill="white"/>
</g>
<defs>
<clipPath id="clip0">
<rect width="38" height="38" fill="white"/>
</clipPath>
</defs>
</svg>
