<svg width="254" height="274" viewBox="0 0 254 274" fill="none" xmlns="http://www.w3.org/2000/svg">
<path d="M180.696 84.8731C191.334 105.34 207.716 119.839 213.413 138.624C219.061 157.39 213.803 187.514 198.23 195.328C182.639 203.191 156.495 195.863 134.437 201.203C112.379 206.542 94.7056 217.559 71.2538 222.865C47.8021 228.17 18.8703 220.776 13.329 202.59C7.76998 184.452 25.5539 155.506 34.3021 131.784C43.0502 108.063 42.7625 89.5677 50.4492 74.0494C58.1656 58.5963 72.0002 39.269 85.2962 30.7386C105.5 15.269 136.759 18.8754 150.993 28.4082C165.227 37.941 170.122 64.3762 180.696 84.8731Z" fill="#FFF1EC"/>
<g clip-path="url(#clip0)">
<path d="M132.349 107.687L135.255 109.411C135.255 109.411 141.615 84.3242 144.419 67.5062C141.202 65.8701 139.726 62.3915 137.631 62.6863C134.134 77.6324 132.349 107.687 132.349 107.687Z" fill="#F6BEBE"/>
<path d="M199.767 163.874L206.142 166.955L208.001 164.641L203.486 161.295C203.486 161.295 198.705 162.577 199.767 163.874Z" fill="#F6BEBF"/>
<path d="M207.203 164.685C207.203 164.685 196.579 169.519 199.501 176.211L208 164.685H207.203Z" fill="#512A2A"/>
<path d="M163.423 92.2542C163.689 92.6964 174.564 107.834 176.511 128.779C176.806 131.904 178.164 134.822 180.79 136.547C185.645 139.716 193.2 144.61 197.169 149.827C203.219 157.772 204.178 160.322 204.178 160.322L200.681 165.407C200.681 165.407 158.849 147.425 154.068 109.367C149.288 71.3091 163.438 92.269 163.438 92.269L163.423 92.2542Z" fill="#398CAE"/>
<path d="M160.148 128.661L160.133 128.632C159.882 128.16 159.646 127.674 159.41 127.202C159.174 126.715 158.938 126.229 158.717 125.728L158.702 125.698C158.48 125.212 158.274 124.726 158.053 124.224L158.038 124.18C157.831 123.694 157.625 123.193 157.433 122.692L157.418 122.647C157.226 122.146 157.034 121.63 156.857 121.129L156.843 121.085C156.666 120.569 156.489 120.053 156.311 119.522L156.297 119.493C156.12 118.962 155.957 118.432 155.81 117.886V117.872C155.662 117.341 155.515 116.796 155.367 116.25V116.236V116.221C155.234 115.675 155.102 115.13 154.969 114.57L154.954 114.526C154.836 113.966 154.718 113.42 154.615 112.845V112.831V112.816C154.6 112.727 154.585 112.639 154.57 112.551C155.279 109.603 156.784 107.687 158.835 107.687C159.558 107.687 160.354 107.922 161.195 108.438C166.743 111.814 162.774 123.782 160.546 129.369C160.413 129.118 160.281 128.882 160.148 128.632V128.661Z" fill="#2A779D"/>
<path d="M131.273 183.847C132.202 184.082 133.737 186.013 135.094 185.438C135.434 183.802 137.912 175.135 138.562 172.762L133.589 172.084C133.147 175.047 133.383 181.577 132.556 183.537C132.364 183.979 130.815 183.743 131.287 183.861L131.273 183.847Z" fill="#F6BEBF"/>
<path d="M162.154 90.6621C155.426 90.6621 148.225 83.8376 148.225 83.8376C148.225 83.8376 147.502 88.9228 145.924 99.8892C145.171 105.078 139.195 131.167 137.646 138.05C136.495 143.15 131.271 162.857 131.271 174.944L139.874 176.211C141.084 171.863 143.282 167.353 144.005 163.815C145.909 154.588 151.339 140.35 152.918 136.458C154.496 132.582 165.651 117.179 167.245 108.468C169.001 98.8721 163.763 90.6621 162.154 90.6621Z" fill="#398CAE"/>
<path d="M104.8 96.1158C104.667 95.9979 104.505 95.9095 104.313 95.88C104.121 95.8358 103.9 95.8653 103.723 95.9684C103.546 96.0716 103.413 96.219 103.339 96.3664L103.266 96.6023V96.8381C103.369 96.7054 103.457 96.5728 103.561 96.4549C103.664 96.3369 103.767 96.2485 103.885 96.1895C104.121 96.0569 104.446 96.0716 104.815 96.1158H104.8Z" fill="#7C5642"/>
<path d="M106.646 82.2458H105.849C105.849 78.0155 103.71 74.5812 101.069 74.5812C98.4275 74.5812 96.288 78.0155 96.288 82.2458H95.4912C95.4912 77.5586 97.9406 73.8884 101.069 73.8884C104.197 73.8884 106.646 77.5586 106.646 82.2458Z" fill="#626263"/>
<path d="M113.418 113.509L84.9404 113.863L90.2966 81.5384L107.841 80.1528L113.418 113.509Z" fill="#EE98A7"/>
<path d="M105.052 81.8921H104.255C104.255 77.6618 102.115 74.2274 99.474 74.2274C96.8328 74.2274 94.6933 77.6618 94.6933 81.8921H93.8965C93.8965 77.2049 96.3459 73.5347 99.474 73.5347C102.602 73.5347 105.052 77.2049 105.052 81.8921Z" fill="#626263"/>
<path d="M95.0771 91.2665L102.263 90.5737V102.395L95.0771 103.088V91.2665Z" fill="#F2F2F9"/>
<path d="M52.5664 168.473L53.3484 138.699L86.3857 134.439L84.7184 168.473H52.5664Z" fill="#F86B85"/>
<path d="M56.3291 139.392L57.6718 109.617L114.362 105.358L111.499 139.392H56.3291Z" fill="#F1CD70"/>
<path d="M77.666 166.911L78.4481 122.367L111.471 115.985L113.743 165.348L77.666 166.911Z" fill="#7FB6E2"/>
<path d="M50.2063 181.017H115.307L120.014 155.944L49.8965 161.634L50.2063 181.017Z" fill="#EE98A7"/>
<path d="M64.902 122.426H64.3413C64.3413 120.156 62.8215 118.314 60.9476 118.314C59.0737 118.314 57.5539 120.156 57.5539 122.426H56.9932C56.9932 119.906 58.7343 117.931 60.9624 117.931C63.1904 117.931 64.9316 119.906 64.9316 122.426H64.902Z" fill="#626263"/>
<path d="M69.713 139.23L49.4834 139.407L53.2903 122.058L65.7586 121.306L69.713 139.23Z" fill="#7FB6E2"/>
<path d="M63.7663 122.235H63.2056C63.2056 119.965 61.6858 118.122 59.8119 118.122C57.9379 118.122 56.4181 119.965 56.4181 122.235H55.8574C55.8574 119.714 57.5986 117.739 59.8266 117.739C62.0547 117.739 63.7958 119.714 63.7958 122.235H63.7663Z" fill="#626263"/>
<path d="M139.86 61.1533C139.86 61.1533 141.955 57.6157 142.25 56.0533C142.545 54.4909 143.268 48.595 141.232 46.6347C141.232 46.6347 138.104 50.747 134.857 48.315C130.623 45.1607 132.201 30.5684 133.736 28.8291C135.285 27.0898 137.882 21.9309 143.814 22.5795C149.746 23.228 152.549 40.2082 148.683 43.5393C148.683 43.5393 148.816 53.8866 151.929 55.3016C151.929 55.3016 147.134 62.1408 143.548 61.9197C139.963 61.6839 139.86 61.1533 139.86 61.1533Z" fill="#F6BEBF"/>
<path d="M142.073 48.0203C142.044 47.9466 142.014 47.8877 141.999 47.814C141.955 47.7255 141.926 47.6371 141.881 47.5486C141.822 47.416 141.749 47.2981 141.675 47.1654C141.631 47.0917 141.572 47.018 141.513 46.9443C141.483 46.9148 141.454 46.8706 141.424 46.8411C141.395 46.8117 141.365 46.7822 141.35 46.7527C141.321 46.7232 141.291 46.6937 141.262 46.6643C141.262 46.6643 143.741 44.2912 144.036 42.7288C144.036 42.7288 143.667 46.4874 142.118 48.0498L142.073 48.0203Z" fill="#D69F9C"/>
<path d="M155.677 53.0464C149.406 49.9216 144.478 56.6872 143.091 57.6452C141.689 58.6033 142.456 54.6236 142.456 54.6236L139.963 57.3947C133.898 69.7023 136.687 68.4789 136.864 75.4803C137.115 85.5327 143.386 98.8427 145.865 100.022L153.729 96.1895C159.41 93.728 163.291 91.8855 162.347 88.1122C161.742 85.6949 158.628 80.3001 160.222 73.2988C161.373 68.2726 161.948 56.186 155.692 53.0612L155.677 53.0464Z" fill="url(#paint0_linear)"/>
<path d="M132.439 33.5606C132.439 33.5606 128.145 33.5901 128.042 31.0254C127.938 28.4607 132.129 28.446 132.129 28.446C132.129 28.446 125.666 27.2668 127.26 24.3778C128.868 21.4888 136.142 22.1521 136.142 22.1521C136.142 22.1521 133.619 19.9854 135.021 17.966C136.423 15.9614 146.043 18.5261 147.061 23.1397C147.061 23.1397 154.409 21.5036 153.037 31.3939C151.665 41.2842 148.566 43.6131 148.566 43.6131C148.566 43.6131 146.383 41.8443 146.058 38.4395C146.058 38.4395 147.283 39.1765 148.035 37.9383C148.788 36.7149 149.127 34.2387 148.345 33.6048C147.563 32.971 144.966 36.1106 144.966 36.1106C144.966 36.1106 141.735 34.0176 142.251 31.8066C142.767 29.6104 141.056 29.9199 141.056 29.9199C141.056 29.9199 136.01 33.3543 133.014 31.3644C133.014 31.3644 132.645 31.9393 132.409 33.5459L132.439 33.5606Z" fill="#433A31"/>
<path d="M58.2915 207.725C58.2915 210.231 56.2552 212.265 53.7468 212.265C51.2384 212.265 49.2021 210.231 49.2021 207.725C49.2021 205.219 51.2384 203.185 53.7468 203.185C56.2552 203.185 58.2915 205.219 58.2915 207.725Z" fill="#512A2A"/>
<path d="M111.367 207.725C111.367 210.231 109.33 212.265 106.822 212.265C104.314 212.265 102.277 210.231 102.277 207.725C102.277 205.219 104.314 203.185 106.822 203.185C109.33 203.185 111.367 205.219 111.367 207.725Z" fill="#512A2A"/>
<path d="M45.2778 183.036H120.176L131.39 123.989L38.1509 133.201L45.2778 183.036ZM121.017 184.038H44.4072L37 132.287L132.63 122.839L121.017 184.038Z" fill="#512A2A"/>
<path d="M121.061 201.917H45.6611V200.915H121.061C123.23 200.915 127.716 198.704 127.716 191.894C127.716 185.276 121.253 184.097 120.987 184.053L121.15 183.051C121.223 183.065 128.734 184.407 128.734 191.894C128.734 199.471 123.569 201.932 121.076 201.932L121.061 201.917Z" fill="#512A2A"/>
<path d="M53.2449 183.537L48.7002 131.535L49.7036 131.447L54.2482 183.449L53.2449 183.537Z" fill="#512A2A"/>
<path d="M65.3736 183.507L64.3555 129.486L65.3736 129.472L66.377 183.478L65.3736 183.507Z" fill="#512A2A"/>
<path d="M81.0445 183.507L80.0264 183.478L82.0479 128.44L83.066 128.484L81.0445 183.507Z" fill="#512A2A"/>
<path d="M94.6791 183.552L93.6758 183.434L100.242 126.391L101.245 126.509L94.6791 183.552Z" fill="#512A2A"/>
<path d="M109.832 183.581L108.844 183.419L118.449 124.844L119.438 125.02L109.832 183.581Z" fill="#512A2A"/>
<path d="M39.1246 143.607L39.0508 142.605L129.516 135.53L129.59 136.547L39.1246 143.607Z" fill="#512A2A"/>
<path d="M41.1312 157.742L41.0869 156.74L126.506 153.203L126.55 154.22L41.1312 157.742Z" fill="#512A2A"/>
<path d="M43.1377 172.394V171.377L122.979 170.875L122.994 171.878L43.1377 172.394Z" fill="#512A2A"/>
<path d="M135.183 185.188C135.183 185.188 126.108 177.848 121.416 183.449L135.537 185.91L135.183 185.203V185.188Z" fill="#512A2A"/>
<path d="M154.512 54.7267C153.508 54.373 152.608 53.1349 151.959 53.4591C148.993 54.4172 146.013 59.6056 143.312 66.4006C145.423 66.5038 148.565 67.0786 151.428 69.2748C154.305 61.3596 155.973 55.2574 154.497 54.7415L154.512 54.7267Z" fill="url(#paint1_linear)"/>
<path d="M132.231 106.566L134.784 108.792C134.784 108.792 145.615 85.297 151.458 69.2602C148.595 67.064 145.452 66.4892 143.342 66.386C137.071 82.1575 132.246 106.552 132.246 106.552L132.231 106.566Z" fill="#F6BEBE"/>
<path d="M131.271 124.062L133.5 112.285H134.768L132.629 124.062L131.271 124.844V124.062Z" fill="#512A2A"/>
<path d="M129.591 123.148L129.679 109.426L131.273 110.06L130.432 123.148H129.591Z" fill="#512A2A"/>
<path d="M128.719 108.792L129.988 105.299L137.306 110.384C137.306 110.384 140.169 113.877 137.306 113.877C134.444 113.877 128.704 108.792 128.704 108.792H128.719Z" fill="#512A2A"/>
<path d="M133.693 105.711C133.693 105.711 128.012 104.93 128.528 108.129C129.045 111.327 132.557 113.243 132.866 111.018C133.191 108.792 131.937 107.79 133.353 108.129C134.77 108.468 133.693 105.711 133.693 105.711Z" fill="#F6BEBE"/>
<path d="M135.596 106.979C135.596 106.979 129.9 106.198 130.431 109.396C130.948 112.595 134.46 114.511 134.77 112.285C135.094 110.06 133.84 109.057 135.256 109.396C136.673 109.735 135.596 106.979 135.596 106.979Z" fill="#F6BEBE"/>
</g>
<defs>
<linearGradient id="paint0_linear" x1="159.012" y1="50.9705" x2="123.446" y2="81.5924" gradientUnits="userSpaceOnUse">
<stop stop-color="#2FAEFF"/>
<stop offset="0.488774" stop-color="#2E99FF"/>
<stop offset="1" stop-color="#2D7BFF"/>
</linearGradient>
<linearGradient id="paint1_linear" x1="153.501" y1="52.9879" x2="141.677" y2="66.6045" gradientUnits="userSpaceOnUse">
<stop stop-color="#2FAEFF"/>
<stop offset="0.488774" stop-color="#2E99FF"/>
<stop offset="1" stop-color="#2D7BFF"/>
</linearGradient>
<clipPath id="clip0">
<rect width="171" height="195" fill="white" transform="translate(37 17.269)"/>
</clipPath>
</defs>
</svg>
