<svg width="20" height="16" viewBox="0 0 20 16" fill="none" xmlns="http://www.w3.org/2000/svg">
<path d="M19 1H1C0.447812 1 0 1.44781 0 2V14C0 14.5522 0.447812 15 1 15H19C19.5522 15 20 14.5522 20 14V2C20 1.44781 19.5522 1 19 1ZM5.5 10.2463V10.75C5.5 10.8881 5.38812 11 5.25 11H4.75C4.61188 11 4.5 10.8881 4.5 10.75V10.2409C4.14719 10.2228 3.80406 10.0997 3.51969 9.88625C3.39781 9.79469 3.39156 9.61219 3.50187 9.50688L3.86906 9.15656C3.95562 9.07406 4.08437 9.07031 4.18563 9.13375C4.30656 9.20938 4.44375 9.25 4.58625 9.25H5.46469C5.66781 9.25 5.83344 9.065 5.83344 8.83781C5.83344 8.65188 5.72062 8.48812 5.55937 8.44L4.15312 8.01812C3.57219 7.84375 3.16625 7.28625 3.16625 6.66219C3.16625 5.89594 3.76156 5.27344 4.49969 5.25375V4.75C4.49969 4.61188 4.61156 4.5 4.74969 4.5H5.24969C5.38781 4.5 5.49969 4.61188 5.49969 4.75V5.25906C5.8525 5.27719 6.19562 5.4 6.48 5.61375C6.60187 5.70531 6.60812 5.88781 6.49781 5.99312L6.13062 6.34344C6.04406 6.42594 5.91531 6.42969 5.81406 6.36625C5.69313 6.29031 5.55594 6.25 5.41344 6.25H4.535C4.33187 6.25 4.16625 6.435 4.16625 6.66219C4.16625 6.84812 4.27906 7.01188 4.44031 7.06L5.84656 7.48187C6.4275 7.65625 6.83344 8.21375 6.83344 8.83781C6.83344 9.60437 6.23812 10.2266 5.5 10.2463ZM13 9.75C13 9.88813 12.8881 10 12.75 10H9.25C9.11187 10 9 9.88813 9 9.75V9.25C9 9.11187 9.11187 9 9.25 9H12.75C12.8881 9 13 9.11187 13 9.25V9.75ZM18 9.75C18 9.88813 17.8881 10 17.75 10H15.25C15.1119 10 15 9.88813 15 9.75V9.25C15 9.11187 15.1119 9 15.25 9H17.75C17.8881 9 18 9.11187 18 9.25V9.75ZM18 6.75C18 6.88812 17.8881 7 17.75 7H9.25C9.11187 7 9 6.88812 9 6.75V6.25C9 6.11188 9.11187 6 9.25 6H17.75C17.8881 6 18 6.11188 18 6.25V6.75Z" fill="#FF7643"/>
</svg>
