<svg width="38" height="38" viewBox="0 0 38 38" fill="none" xmlns="http://www.w3.org/2000/svg">
<path fill-rule="evenodd" clip-rule="evenodd" d="M33.3149 22.1633H36.0981V27.7297H33.3149V22.1633Z" fill="#FFEBE2"/>
<path fill-rule="evenodd" clip-rule="evenodd" d="M33.3149 22.1633V29.1213H30.5317V20.7717H33.3149V22.1633Z" fill="#FF7643"/>
<path fill-rule="evenodd" clip-rule="evenodd" d="M30.5318 21.4675V28.4255H24.1889C23.0654 30.1037 21.1526 31.2087 18.9815 31.2087C16.8103 31.2087 14.8975 30.1037 13.774 28.4255H7.43115V21.4675H13.774C14.0676 21.0292 14.415 20.63 14.8067 20.2792C15.9145 19.2875 17.3776 18.6843 18.9815 18.6843C20.5853 18.6843 22.0484 19.2875 23.1563 20.2792C23.5479 20.63 23.8953 21.0292 24.1889 21.4675H30.5318Z" fill="#FF8C61"/>
<path fill-rule="evenodd" clip-rule="evenodd" d="M7.43115 21.4675V29.1213H4.64795V20.7717H7.43115V21.4675Z" fill="#FF7643"/>
<path fill-rule="evenodd" clip-rule="evenodd" d="M1.86475 22.1633H4.64795V27.7297H1.86475V22.1633Z" fill="#FFEBE2"/>
<path fill-rule="evenodd" clip-rule="evenodd" d="M14.8066 20.2792V15.9011H23.1562V20.2792C22.0484 19.2875 20.5853 18.6843 18.9814 18.6843C17.3776 18.6843 15.9145 19.2875 14.8066 20.2792Z" fill="#FF7643"/>
<path fill-rule="evenodd" clip-rule="evenodd" d="M17.5898 11.7263H20.373V15.9011H17.5898V11.7263Z" fill="#E3EAEF"/>
<path fill-rule="evenodd" clip-rule="evenodd" d="M20.373 11.7263H15.5024C15.1134 11.7263 14.7618 11.5665 14.5092 11.3093L12.143 8.94311H4.36963C3.6012 8.94311 2.97803 8.31994 2.97803 7.55151C2.97803 6.78287 3.6012 6.15991 4.36963 6.15991H12.7192C13.0754 6.15991 13.4313 6.29581 13.7031 6.56761L16.0787 8.94311H22.4604C23.2289 8.94311 23.852 9.56607 23.852 10.3347C23.852 11.1034 23.2289 11.7263 22.4604 11.7263H20.373Z" fill="#FF7643"/>
<path d="M36.0981 27.034H34.0107V22.8591H36.0981C36.4826 22.8591 36.7939 22.5478 36.7939 22.1633C36.7939 21.7791 36.4826 21.4675 36.0981 21.4675H34.0107V20.7717C34.0107 20.3875 33.6989 20.0759 33.3149 20.0759H30.5317C30.1473 20.0759 29.8359 20.3875 29.8359 20.7717H24.5481C24.335 20.4878 24.1019 20.2227 23.852 19.9777V15.9011C23.852 15.5169 23.5407 15.2053 23.1562 15.2053H21.0688V12.4221H22.4604C23.6111 12.4221 24.5478 11.4858 24.5478 10.3347C24.5478 9.18382 23.6111 8.24732 22.4604 8.24732H19.6772V7.55152C19.6772 7.1673 19.3659 6.85571 18.9814 6.85571C18.597 6.85571 18.2856 7.1673 18.2856 7.55152V8.24732H16.367L14.1952 6.07576C13.801 5.68133 13.2767 5.46455 12.7192 5.46455H11.6758C11.2918 5.46455 10.98 5.77592 10.98 6.16035C10.98 6.54434 11.2918 6.85571 11.6758 6.85571H12.7192C12.9051 6.85571 13.0797 6.92834 13.2111 7.05967L15.5868 9.4354C15.7173 9.56586 15.894 9.63892 16.0786 9.63892H22.4604C22.844 9.63892 23.1562 9.95138 23.1562 10.3347C23.1562 10.7185 22.844 11.0305 22.4604 11.0305H15.5024C15.3144 11.0305 15.138 10.9566 15.0012 10.8174L12.6349 8.45127C12.5044 8.32081 12.3276 8.24732 12.143 8.24732H4.36963C3.98607 8.24732 3.67383 7.93529 3.67383 7.55152C3.67383 7.16817 3.98607 6.85571 4.36963 6.85571H5.41355C5.79798 6.85571 6.10935 6.54434 6.10935 6.15991C6.10935 5.7757 5.79798 5.46411 5.41355 5.46411H4.36963C3.21895 5.46411 2.28223 6.40062 2.28223 7.55152C2.28223 8.70263 3.21895 9.63892 4.36963 9.63892H11.8549L14.0126 11.7968C14.4085 12.2001 14.9375 12.4221 15.5024 12.4221H16.894V15.2053H14.8066C14.4222 15.2053 14.1108 15.5169 14.1108 15.9011V19.9779C13.861 20.2227 13.6279 20.4878 13.4148 20.7717H8.12695C8.12695 20.3875 7.81558 20.0759 7.43115 20.0759H4.64795C4.26395 20.0759 3.95215 20.3875 3.95215 20.7717V21.4675H1.86475C1.48032 21.4675 1.16895 21.7791 1.16895 22.1633C1.16895 22.5478 1.48032 22.8591 1.86475 22.8591H3.95215V27.034H1.86475C1.48032 27.034 1.16895 27.3455 1.16895 27.7298C1.16895 28.1142 1.48032 28.4256 1.86475 28.4256H3.95215V29.1214C3.95215 29.5058 4.26395 29.8172 4.64795 29.8172H7.43115C7.81558 29.8172 8.12695 29.5058 8.12695 29.1214H13.4148C14.7275 30.8711 16.7812 31.9046 18.9814 31.9046C21.1817 31.9046 23.2354 30.8711 24.5481 29.1214H29.8359C29.8359 29.5058 30.1473 29.8172 30.5317 29.8172H33.3149C33.6989 29.8172 34.0107 29.5058 34.0107 29.1214V28.4256H36.0981C36.4826 28.4256 36.7939 28.1142 36.7939 27.7298C36.7939 27.3455 36.4826 27.034 36.0981 27.034ZM18.2856 12.4221H19.6772V15.2053H18.2856V12.4221ZM15.5024 16.5969H22.4604V18.9198C21.4187 18.318 20.2234 17.9885 18.9814 17.9885C17.7394 17.9885 16.5442 18.3184 15.5024 18.9198V16.5969ZM6.73535 28.4256H5.34375V21.4675H6.73535V28.4256ZM24.1889 27.7298C23.9566 27.7298 23.7398 27.8457 23.6107 28.0385C22.5733 29.5882 20.8427 30.513 18.9814 30.513C17.1202 30.513 15.3896 29.5882 14.3522 28.0385C14.2235 27.8457 14.0063 27.7298 13.774 27.7298H8.12695V22.1633H13.774C14.0063 22.1633 14.223 22.0477 14.3522 21.8546C15.3896 20.3051 17.1202 19.3801 18.9814 19.3801C20.8427 19.3801 22.5733 20.3051 23.6107 21.8546C23.7394 22.0477 23.9566 22.1633 24.1889 22.1633H29.8359V24.9466H28.0966C27.7124 24.9466 27.4008 25.2581 27.4008 25.6424C27.4008 26.0268 27.7124 26.3382 28.0966 26.3382H29.8359V27.7298H24.1889ZM32.6191 28.4256H31.2275V21.4675H32.6191V28.4256Z" fill="#333333"/>
<path d="M24.9655 24.9465H24.9651C24.5807 24.9465 24.2695 25.2581 24.2695 25.6423C24.2695 26.0268 24.5813 26.3381 24.9655 26.3381C25.35 26.3381 25.6613 26.0268 25.6613 25.6423C25.6613 25.2581 25.35 24.9465 24.9655 24.9465Z" fill="white"/>
<path d="M8.54465 6.85571C8.92908 6.85571 9.24045 6.54434 9.24045 6.15991C9.24045 5.7757 8.92908 5.46411 8.54465 5.46411H8.54421C8.16022 5.46411 7.84863 5.7757 7.84863 6.15991C7.84863 6.54434 8.16044 6.85571 8.54465 6.85571Z" fill="#333333"/>
</svg>
