<svg width="32" height="32" viewBox="0 0 32 32" fill="none" xmlns="http://www.w3.org/2000/svg">
<path d="M28.568 14.7937L5.90134 4.12699C5.67312 4.01901 5.41891 3.97812 5.16834 4.00908C4.91777 4.04004 4.68115 4.14158 4.48608 4.30186C4.291 4.46214 4.1455 4.67456 4.06652 4.91437C3.98754 5.15417 3.97835 5.41149 4.04001 5.65632L6.62534 16.0003L4.04001 26.3443C3.97777 26.5892 3.98657 26.8468 4.06536 27.0869C4.14415 27.327 4.28969 27.5397 4.48494 27.7002C4.68019 27.8606 4.91709 27.9621 5.16792 27.9928C5.41875 28.0236 5.67314 27.9822 5.90134 27.8737L28.568 17.207C28.7971 17.0993 28.9908 16.9287 29.1264 16.715C29.2621 16.5013 29.3341 16.2534 29.3341 16.0003C29.3341 15.7472 29.2621 15.4993 29.1264 15.2857C28.9908 15.072 28.7971 14.9013 28.568 14.7937ZM7.30801 24.263L8.42668 19.787L16 16.0003L8.42668 12.2137L7.30801 7.73765L24.868 16.0003L7.30801 24.263Z" fill="white"/>
</svg>
