<svg width="24" height="24" viewBox="0 0 24 24" fill="none" xmlns="http://www.w3.org/2000/svg">
<path d="M20.9949 6.89974C20.9783 6.73169 20.9193 6.5706 20.8235 6.43155C20.7276 6.29251 20.5981 6.18007 20.4469 6.10474L12.4469 2.10474C12.308 2.03522 12.1548 1.99902 11.9994 1.99902C11.8441 1.99902 11.6909 2.03522 11.5519 2.10474L3.55194 6.10474C3.40122 6.18049 3.27206 6.29308 3.17643 6.43205C3.08081 6.57103 3.02183 6.73189 3.00494 6.89974C2.99394 7.00674 2.04394 17.6667 11.5939 21.9137C11.7215 21.9713 11.8599 22.0011 11.9999 22.0011C12.1399 22.0011 12.2783 21.9713 12.4059 21.9137C21.9559 17.6667 21.0059 7.00774 20.9949 6.89974ZM11.9999 19.8967C5.23094 16.6247 4.91094 9.64174 4.96594 7.63474L11.9999 4.11774L19.0289 7.63274C19.0659 9.62174 18.7009 16.6507 11.9999 19.8967Z" fill="#FF7643"/>
<path d="M11 12.586L8.70697 10.293L7.29297 11.707L11 15.414L16.707 9.70697L15.293 8.29297L11 12.586Z" fill="#FF7643"/>
</svg>
