<svg width="32" height="32" viewBox="0 0 32 32" fill="none" xmlns="http://www.w3.org/2000/svg">
<path d="M22.663 26.6667C21.4643 26.6667 20.9457 26.2521 20.1617 25.6254C19.255 24.9014 18.1283 24.0001 15.9923 24.0001C13.8577 24.0001 12.731 24.9014 11.8257 25.6267C11.043 26.2521 10.5257 26.6667 9.32699 26.6667C8.13099 26.6667 7.61366 26.2521 6.83099 25.6267C5.92566 24.9014 4.80166 24.0001 2.66699 24.0001V26.6667C3.86433 26.6667 4.38166 27.0814 5.16433 27.7067C6.06966 28.4321 7.19499 29.3334 9.32699 29.3334C11.4617 29.3334 12.587 28.4321 13.4923 27.7081C14.2763 27.0814 14.7937 26.6667 15.9923 26.6667C17.1923 26.6667 17.7403 27.1041 18.4963 27.7081C19.4017 28.4321 20.5283 29.3334 22.663 29.3334C24.7977 29.3334 25.9243 28.4321 26.8297 27.7081C27.5857 27.1041 28.1337 26.6667 29.3337 26.6667V24.0001C27.1977 24.0001 26.071 24.9014 25.1643 25.6254C24.3803 26.2521 23.8617 26.6667 22.663 26.6667ZM8.00033 11.3334L5.33366 12.0001L8.00033 22.6667H9.32699C11.4617 22.6667 12.587 21.7654 13.4923 21.0414C14.2763 20.4147 14.7937 20.0001 15.9923 20.0001C17.1923 20.0001 17.7403 20.4374 18.4963 21.0414C19.4017 21.7654 20.5283 22.6667 22.663 22.6667H24.0003L24.0363 22.5241L24.4537 20.8547L26.667 12.0001L24.0003 11.3334V6.66808C24.0004 6.35973 23.8937 6.06087 23.6982 5.82238C23.5028 5.58389 23.2307 5.42052 22.9283 5.36008L17.3337 4.24141V2.66675H14.667V4.24141L9.07233 5.36008C8.76995 5.42052 8.49788 5.58389 8.30242 5.82238C8.10696 6.06087 8.0002 6.35973 8.00033 6.66808V11.3334ZM10.667 7.75875L16.0003 6.69208L21.3337 7.75875V10.6667L16.0003 9.33342L10.667 10.6667V7.75875Z" fill="#FF7643"/>
</svg>
