<svg width="38" height="38" viewBox="0 0 38 38" fill="none" xmlns="http://www.w3.org/2000/svg">
<g clip-path="url(#clip0)">
<path d="M10.7666 13.3H27.2333V25.3334C27.2333 25.6831 26.9497 25.9667 26.5999 25.9667H11.3999C11.0502 25.9667 10.7666 25.6831 10.7666 25.3334V13.3Z" fill="#FFEBE2"/>
<path d="M11.3999 0.633301H26.5999C26.9497 0.633301 27.2333 0.916854 27.2333 1.26663V13.3H10.7666V1.26663C10.7666 0.916854 11.0502 0.633301 11.3999 0.633301Z" fill="#FF7643"/>
<path d="M13.2998 13.2998H24.6998V22.1665C24.6998 22.5163 24.4163 22.7998 24.0665 22.7998H13.9331C13.5834 22.7998 13.2998 22.5163 13.2998 22.1665V13.2998Z" fill="#FF8C61"/>
<path d="M18.9997 10.7665C21.0984 10.7665 22.7997 9.06519 22.7997 6.9665C22.7997 4.86782 21.0984 3.1665 18.9997 3.1665C16.901 3.1665 15.1997 4.86782 15.1997 6.9665C15.1997 9.06519 16.901 10.7665 18.9997 10.7665Z" fill="#FF7643"/>
<path d="M12.6665 25.9668H17.7332V30.4001C17.7332 30.7499 17.4496 31.0335 17.0998 31.0335H13.2998C12.9501 31.0335 12.6665 30.7499 12.6665 30.4001V25.9668Z" fill="#FF7643"/>
<path d="M13.9331 31.0332H16.4664V36.7332C16.4664 37.083 16.1829 37.3665 15.8331 37.3665H14.5664C14.2167 37.3665 13.9331 37.083 13.9331 36.7332V31.0332Z" fill="#FFEBE2"/>
<path d="M20.2666 25.9668H25.3333V30.4001C25.3333 30.7499 25.0497 31.0335 24.6999 31.0335H20.8999C20.5502 31.0335 20.2666 30.7499 20.2666 30.4001V25.9668Z" fill="#FF7643"/>
<path d="M21.5332 31.0332H24.0665V36.7332C24.0665 37.083 23.783 37.3665 23.4332 37.3665H22.1665C21.8168 37.3665 21.5332 37.083 21.5332 36.7332V31.0332Z" fill="#FFEBE2"/>
<path d="M10.1333 8.2334H11.4V13.3001H10.1333V8.2334Z" fill="white"/>
<path d="M11.4 26.6H12.0333V30.4C12.0333 31.0996 12.6004 31.6667 13.3 31.6667V36.7333C13.3 37.4329 13.8671 38 14.5666 38H15.8333C16.5329 38 17.1 37.4329 17.1 36.7333V31.6667C17.7995 31.6667 18.3666 31.0996 18.3666 30.4V26.6H19.6333V30.4C19.6333 31.0996 20.2004 31.6667 20.9 31.6667V36.7333C20.9 37.4329 21.4671 38 22.1666 38H23.4333C24.1329 38 24.7 37.4329 24.7 36.7333V31.6667C25.3995 31.6667 25.9666 31.0996 25.9666 30.4V26.6H26.6C27.2995 26.6 27.8666 26.0329 27.8666 25.3333V1.26667C27.8666 0.567106 27.2995 0 26.6 0H11.4C10.7004 0 10.1333 0.567106 10.1333 1.26667V8.23333C10.1333 8.58311 10.4169 8.86667 10.7666 8.86667C11.1164 8.86667 11.4 8.58311 11.4 8.23333V1.26667H26.6V12.6667H10.7666C10.4169 12.6667 10.1333 12.9502 10.1333 13.3V25.3333C10.1333 26.0329 10.7004 26.6 11.4 26.6ZM15.8333 36.7333H14.5666V31.6667H15.8333V36.7333ZM17.1 30.4H13.3V26.6H17.1V30.4ZM23.4333 36.7333H22.1666V31.6667H23.4333V36.7333ZM24.7 30.4H20.9V26.6H24.7V30.4ZM24.0666 13.9333V22.1667H13.9333V13.9333H24.0666ZM12.6666 13.9333V22.1667C12.6666 22.8662 13.2337 23.4333 13.9333 23.4333H24.0666C24.7662 23.4333 25.3333 22.8662 25.3333 22.1667V13.9333H26.6V25.3333H11.4V13.9333H12.6666Z" fill="#333333"/>
<path d="M10.7791 11.4C10.5528 11.4011 10.3431 11.2814 10.229 11.086C10.1149 10.8907 10.1137 10.6492 10.2259 10.4527C10.338 10.2562 10.5465 10.1344 10.7728 10.1333H10.7791C11.1289 10.1333 11.4124 10.4169 11.4124 10.7666C11.4124 11.1164 11.1289 11.4 10.7791 11.4Z" fill="#333333"/>
<path d="M23.4331 6.96678C23.4331 4.51832 21.4482 2.53345 18.9997 2.53345C16.5513 2.53345 14.5664 4.51832 14.5664 6.96678C14.5664 9.41524 16.5513 11.4001 18.9997 11.4001C21.447 11.3973 23.4303 9.41409 23.4331 6.96678ZM15.8331 6.96678C15.8331 5.21788 17.2508 3.80011 18.9997 3.80011C20.7486 3.80011 22.1664 5.21788 22.1664 6.96678C22.1664 8.71568 20.7486 10.1334 18.9997 10.1334C17.2517 10.1314 15.8352 8.71481 15.8331 6.96678Z" fill="white"/>
</g>
<defs>
<clipPath id="clip0">
<rect width="38" height="38" fill="white"/>
</clipPath>
</defs>
</svg>
