<svg width="38" height="38" viewBox="0 0 38 38" fill="none" xmlns="http://www.w3.org/2000/svg">
<path d="M3.64482 29.8813L0.743164 34.4923L3.50893 37.258L8.11984 34.3563L8.15799 32.2855L8.16051 32.2881L22.4589 17.9897L20.0115 15.5422L5.71315 29.8406L5.71567 29.8432L3.64482 29.8813Z" fill="#FFEBE2"/>
<path d="M17.8667 13.3991L24.6022 20.1347C25.2781 20.8105 26.3738 20.8105 27.0497 20.1347C27.7255 19.4588 27.7255 18.363 27.0497 17.6872L20.3142 10.9517C19.6383 10.2759 18.5426 10.2759 17.8667 10.9517C17.1909 11.6275 17.1909 12.7233 17.8667 13.3991Z" fill="#FF8C61"/>
<path d="M20.3613 10.997L27.0041 17.6397L35.8831 8.76065C37.7175 6.92634 37.7175 3.95232 35.8831 2.11793C34.0488 0.283608 31.0748 0.283608 29.2404 2.11793L20.3613 10.997Z" fill="#FF7643"/>
<path d="M36.4084 1.59311C35.3811 0.565844 34.0151 0 32.5622 0C31.1093 0 29.7434 0.565844 28.7161 1.59311L20.2943 10.0148C19.9304 9.81135 19.519 9.70254 19.0906 9.70254C18.4302 9.70254 17.8092 9.95979 17.3421 10.4268C16.875 10.8938 16.6178 11.5148 16.6178 12.1753C16.6178 12.8358 16.875 13.4567 17.3421 13.9239L18.9613 15.543L5.39779 29.1066L3.6316 29.1391C3.38149 29.1437 3.15044 29.274 3.01715 29.4858L0.115491 34.0968C-0.0690169 34.39 -0.0261185 34.7719 0.218878 35.0169L2.98464 37.7826C3.12796 37.9259 3.31796 38 3.50966 38C3.64593 38 3.78301 37.9626 3.90473 37.886L8.51564 34.9843C8.72746 34.851 8.85779 34.62 8.86239 34.3698L8.8949 32.6036L13.3776 28.121C13.6674 27.8311 13.6674 27.3612 13.3776 27.0713C13.0877 26.7815 12.6179 26.7815 12.3279 27.0713L7.68825 31.711C7.52252 31.8467 7.4204 32.0503 7.41632 32.2717L7.38559 33.9416L3.61528 36.3143L1.68715 34.3861L4.05977 30.6158L5.72969 30.5851C5.94545 30.5811 6.14369 30.4833 6.27876 30.3247L20.0108 16.5927L21.4086 17.9905L16.014 23.3851C15.7241 23.6749 15.7241 24.1448 16.014 24.4347C16.3039 24.7245 16.7737 24.7245 17.0636 24.4347L22.4582 19.0402L24.0774 20.6593C24.5444 21.1264 25.1654 21.3836 25.826 21.3836C26.4865 21.3836 27.1075 21.1264 27.5746 20.6593C28.3728 19.8611 28.5094 18.6486 27.9859 17.7078L36.4082 9.28536C38.5292 7.16463 38.5292 3.71391 36.4084 1.59311ZM26.525 19.6098C26.3382 19.7964 26.0901 19.8992 25.8261 19.8992C25.5621 19.8992 25.3139 19.7964 25.1272 19.6097L18.3918 12.8743C18.205 12.6876 18.1023 12.4394 18.1023 12.1754C18.1023 11.9114 18.2051 11.6632 18.3918 11.4764C18.5784 11.2898 18.8266 11.187 19.0906 11.187C19.3547 11.187 19.6028 11.2898 19.7895 11.4765L26.525 18.2119C26.7118 18.3986 26.8145 18.6469 26.8145 18.9109C26.8145 19.1749 26.7117 19.423 26.525 19.6098ZM27.0045 16.5901L21.4114 10.997L29.7657 2.64271C30.5127 1.89577 31.5059 1.48438 32.5622 1.48438C33.6186 1.48438 34.6118 1.89577 35.3588 2.64278C36.9008 4.18475 36.9008 6.69386 35.3588 8.23583L27.0045 16.5901Z" fill="#333333"/>
<path d="M27.6586 9.18979L32.1395 4.70891C32.4293 4.41909 32.4293 3.94913 32.1395 3.65923C31.8497 3.36948 31.3799 3.36941 31.0898 3.65923L26.609 8.14012C26.3191 8.42994 26.3191 8.8999 26.609 9.18972C26.7539 9.33467 26.9438 9.40711 27.1338 9.40711C27.3237 9.40718 27.5137 9.33474 27.6586 9.18979Z" fill="white"/>
<path d="M25.3125 9.74414C25.1172 9.74414 24.9257 9.82356 24.7878 9.9616C24.6497 10.0996 24.5703 10.2911 24.5703 10.4863C24.5703 10.6823 24.6497 10.873 24.7878 11.0118C24.9257 11.1498 25.1172 11.2285 25.3125 11.2285C25.5077 11.2285 25.6992 11.1498 25.8372 11.0118C25.9752 10.873 26.0547 10.6815 26.0547 10.4863C26.0547 10.2911 25.9753 10.0996 25.8372 9.9616C25.6992 9.82356 25.5076 9.74414 25.3125 9.74414Z" fill="white"/>
<path d="M33.2923 5.8619L26.8795 12.2747C26.5897 12.5645 26.5897 13.0345 26.8795 13.3244C27.0244 13.4693 27.2144 13.5418 27.4043 13.5418C27.5942 13.5418 27.7841 13.4693 27.9291 13.3244L34.3419 6.91157C34.6317 6.62175 34.6317 6.1518 34.3419 5.8619C34.052 5.57208 33.5822 5.57208 33.2923 5.8619Z" fill="white"/>
<path d="M14.6831 25.0229C14.4879 25.0229 14.2964 25.1024 14.1585 25.2405C14.0204 25.3785 13.9409 25.5699 13.9409 25.7651C13.9409 25.9604 14.0203 26.1518 14.1585 26.2906C14.2964 26.4287 14.4879 26.5073 14.6831 26.5073C14.8784 26.5073 15.0699 26.4287 15.2078 26.2906C15.3459 26.1518 15.4253 25.9604 15.4253 25.7651C15.4253 25.5699 15.346 25.3785 15.2078 25.2405C15.0699 25.1024 14.8784 25.0229 14.6831 25.0229Z" fill="#333333"/>
</svg>
