<svg width="32" height="32" viewBox="0 0 32 32" fill="none" xmlns="http://www.w3.org/2000/svg">
<path d="M25.9997 10.6666H22.6663V7.99992C22.6663 6.53325 21.4663 5.33325 19.9997 5.33325H3.99967C2.53301 5.33325 1.33301 6.53325 1.33301 7.99992V19.9999C1.33301 21.4666 2.53301 22.6666 3.99967 22.6666C3.99967 24.8799 5.78634 26.6666 7.99967 26.6666C10.213 26.6666 11.9997 24.8799 11.9997 22.6666H19.9997C19.9997 24.8799 21.7863 26.6666 23.9997 26.6666C26.213 26.6666 27.9997 24.8799 27.9997 22.6666H29.333C30.0663 22.6666 30.6663 22.0666 30.6663 21.3333V16.8933C30.6663 16.3199 30.4797 15.7599 30.133 15.2933L27.0663 11.1999C26.813 10.8666 26.413 10.6666 25.9997 10.6666ZM7.99967 23.9999C7.26634 23.9999 6.66634 23.3999 6.66634 22.6666C6.66634 21.9333 7.26634 21.3333 7.99967 21.3333C8.73301 21.3333 9.33301 21.9333 9.33301 22.6666C9.33301 23.3999 8.73301 23.9999 7.99967 23.9999ZM25.9997 12.6666L28.613 15.9999H22.6663V12.6666H25.9997ZM23.9997 23.9999C23.2663 23.9999 22.6663 23.3999 22.6663 22.6666C22.6663 21.9333 23.2663 21.3333 23.9997 21.3333C24.733 21.3333 25.333 21.9333 25.333 22.6666C25.333 23.3999 24.733 23.9999 23.9997 23.9999Z" fill="#FF7643"/>
</svg>
