<svg width="70" height="70" viewBox="0 0 70 70" fill="none" xmlns="http://www.w3.org/2000/svg">
<path fill-rule="evenodd" clip-rule="evenodd" d="M13.125 13.125C10.7088 13.125 8.75 15.0838 8.75 17.5V52.5C8.75 54.9162 10.7088 56.875 13.125 56.875H56.875C59.2912 56.875 61.25 54.9162 61.25 52.5V17.5C61.25 15.0838 59.2912 13.125 56.875 13.125H13.125ZM4.375 17.5C4.375 12.6675 8.29251 8.75 13.125 8.75H56.875C61.7075 8.75 65.625 12.6675 65.625 17.5V52.5C65.625 57.3325 61.7075 61.25 56.875 61.25H13.125C8.29251 61.25 4.375 57.3325 4.375 52.5V17.5Z" fill="#E0E0E0"/>
<path fill-rule="evenodd" clip-rule="evenodd" d="M45.9375 21.875C44.7294 21.875 43.75 22.8544 43.75 24.0625C43.75 25.2706 44.7294 26.25 45.9375 26.25C47.1456 26.25 48.125 25.2706 48.125 24.0625C48.125 22.8544 47.1456 21.875 45.9375 21.875ZM39.375 24.0625C39.375 20.4381 42.3131 17.5 45.9375 17.5C49.5619 17.5 52.5 20.4381 52.5 24.0625C52.5 27.6869 49.5619 30.625 45.9375 30.625C42.3131 30.625 39.375 27.6869 39.375 24.0625Z" fill="#E0E0E0"/>
<path fill-rule="evenodd" clip-rule="evenodd" d="M21.7174 31.7236C22.9685 30.6129 24.5965 30.0219 26.2687 30.0715C27.9404 30.121 29.53 30.8069 30.7129 31.9889L43.1079 44.3606C43.9629 45.2141 43.9642 46.5991 43.1108 47.4542C42.2573 48.3093 40.8722 48.3106 40.0172 47.4571L27.6223 35.0854C27.2279 34.6911 26.6966 34.4611 26.1392 34.4446C25.5819 34.4281 25.0393 34.625 24.6223 34.995C24.6222 34.9951 24.6224 34.995 24.6223 34.995L8.01602 49.7598C7.11316 50.5626 5.73049 50.4814 4.92774 49.5785C4.125 48.6757 4.20616 47.293 5.10903 46.4903L21.7174 31.7236Z" fill="#E0E0E0"/>
<path fill-rule="evenodd" clip-rule="evenodd" d="M51.9822 43.6073C51.5627 43.2588 51.028 43.0796 50.4832 43.1049C49.9379 43.1302 49.4218 43.3584 49.0362 43.7448L32.1718 60.6092C31.3175 61.4635 29.9325 61.4635 29.0782 60.6092C28.2239 59.755 28.2239 58.3699 29.0782 57.5156L45.9395 40.6543C45.9398 40.654 45.9392 40.6546 45.9395 40.6543C47.0962 39.4958 48.6451 38.8105 50.2805 38.7346C51.9163 38.6587 53.5213 39.1971 54.7805 40.2442L54.7829 40.2462L64.8386 48.6325C65.7664 49.4063 65.8912 50.7857 65.1174 51.7135C64.3437 52.6413 62.9642 52.7662 62.0364 51.9924L51.9822 43.6073C51.9826 43.6075 51.9819 43.607 51.9822 43.6073Z" fill="#E0E0E0"/>
</svg>
