<svg width="100" height="100" viewBox="0 0 100 100" fill="none" xmlns="http://www.w3.org/2000/svg">
<path d="M89.0343 90.6315C73.7326 103.123 25.9536 103.123 10.9641 90.6315C-4.33767 78.1403 -2.77629 24.7403 10.9641 10.6877C24.7045 -3.36496 75.2939 -3.36496 89.0343 10.6877C102.775 24.7403 104.336 78.1405 89.0343 90.6315Z" fill="#FF7643"/>
<path d="M67.4087 78.0579C43.9144 97.7096 18.4441 90.1344 6.9053 85.6351C-3.71233 67.5228 -1.52627 23.4913 10.965 10.6878C22.2071 -0.866505 57.4947 -3.05257 77.7931 4.12986C97.5998 20.7495 89.1966 59.8334 67.4087 78.0579Z" fill="#FF8C61"/>
<path d="M42.8177 77.8279C40.6316 77.8279 38.4458 76.891 37.1966 75.0174L19.709 52.5332C17.2107 49.4104 17.8354 45.0385 20.9582 42.5403C24.0809 40.042 28.4528 40.6666 30.9511 43.7894L42.8177 59.0912L69.0493 25.0526C71.5476 21.9299 75.9195 21.3052 79.0423 23.8035C82.165 26.3018 82.7897 30.6737 80.2914 33.7964L48.4387 75.0174C46.8773 76.5788 45.0037 77.8279 42.8177 77.8279Z" fill="white"/>
</svg>
